<svg width="512" height="512" viewBox="0 0 512 512" fill="none" xmlns="http://www.w3.org/2000/svg">
<path d="M209.58 277.98C163.22 244.72 159.7 180.5 196.62 142.37C232 105.83 290.93 106.19 325.91 143.2C361.7 181.07 358.57 244.37 312.48 277.76C313.14 278.81 314.36 278.93 315.34 279.38C363.79 301.4 392.21 338.6 400.17 391.31C400.97 396.62 401.24 401.98 401.35 407.34C401.52 415.55 396.28 421.48 388.86 421.68C381.58 421.87 376.04 416.42 375.87 408.29C375.36 383.68 368.6 361.05 353.73 341.36C328.25 307.63 294.14 291.47 251.89 294.51C198.61 298.34 156.23 337.81 147.33 390.85C146.38 396.51 146.17 402.25 145.92 407.98C145.56 416.38 140.22 421.91 132.82 421.68C125.28 421.44 119.99 415.45 120.42 406.91C123.41 346.91 152.27 304.36 206.81 279.22C207.59 278.85 208.38 278.51 209.58 277.98ZM197.11 204.39C197.01 239.59 225.35 268.21 260.45 268.36C295.88 268.51 324.46 240.24 324.65 204.86C324.84 169.52 296.52 140.89 261.12 140.63C226 140.39 197.21 169.07 197.11 204.39Z" fill="black"/>
</svg>
