<svg width="512" height="512" viewBox="0 0 512 512" fill="none" xmlns="http://www.w3.org/2000/svg">
<path d="M452.74 266.72C450.19 274.55 444.12 279.69 438.57 285.24C394.46 329.34 350.36 373.45 306.25 417.55C297.73 426.07 287.48 428.22 278.58 422.31C270.59 417 263.77 410.04 258.31 402.16C253.06 394.6 254.26 384.71 260.2 377.64C261.35 376.27 262.61 375 263.87 373.73C289.75 347.92 315.64 322.11 341.54 296.31C342.51 295.35 343.56 294.47 345.39 292.81H84.5201C68.8001 292.81 60.0401 284.1 60.0201 268.46C60.0101 263.73 60.0001 259 60.0201 254.27C60.0801 240.05 68.7001 231.43 83.0101 231.43C168.39 231.41 253.77 231.42 339.15 231.42H343.26L343.8 230.67C342.79 229.8 341.72 228.99 340.78 228.05C315.04 202.28 289.31 176.49 263.58 150.71C252.16 139.26 252.19 127.12 263.66 115.63C267 112.28 270.29 108.88 273.7 105.6C283.16 96.5 295.85 96.34 305.15 105.61C352.12 152.45 398.98 199.41 445.93 246.27C449.37 249.7 451.05 253.96 452.76 258.29C452.74 261.09 452.74 263.91 452.74 266.72Z" fill="black"/>
</svg>
