<svg width="512" height="512" viewBox="0 0 512 512" fill="none" xmlns="http://www.w3.org/2000/svg">
<path d="M258.62 64.07C265.53 67.04 268.3 72.32 267.65 79.74C267.4 82.56 266.7 86.34 268.15 88.02C269.55 89.65 273.43 89.16 276.23 89.56C330.19 97.31 376.35 142.46 385.16 196.01C386.62 204.89 387.36 213.8 387.34 222.79C387.29 248.1 387.53 273.42 387.25 298.72C387.08 313.9 392.99 325.39 405.83 333.45C416.6 340.22 422.63 350.02 423.13 362.75C423.91 382.62 408.08 399.11 388.14 399.24C364.7 399.4 341.26 399.33 317.82 399.22C315.14 399.21 314.08 399.92 313.38 402.59C306.36 429 282.8 447.14 255.74 447.17C228.53 447.2 204.96 429.07 197.83 402.43C197.16 399.91 196.24 399.2 193.66 399.21C170.34 399.33 147.03 399.35 123.71 399.26C103.07 399.18 87.2302 382.77 88.1102 362.26C88.5802 351.18 93.0402 341.47 102.5 335.69C118.8 325.73 124.85 311.76 124.16 293.03C123.29 269.12 123.93 245.16 123.95 221.22C123.99 164.79 156.69 116.88 209.19 96.44C219.44 92.45 230.11 90.01 241.05 88.86C243.08 88.65 243.93 88.11 243.7 86C243.53 84.4 243.82 82.74 243.64 81.14C242.8 73.68 244.94 67.71 251.9 64.05C254.13 64.07 256.37 64.07 258.62 64.07ZM255.41 375.35H362.77C371 375.35 379.23 375.41 387.46 375.33C393.67 375.27 398.49 371.2 399.18 365.42C399.85 359.77 396.91 356.07 392.37 353.14C372.65 340.42 363.17 322.27 363.34 298.81C363.52 273.12 363.36 247.44 363.39 221.75C363.4 215.38 362.92 209.06 361.98 202.76C351.76 133.75 275.92 92 212.38 121.25C170.61 140.48 149.05 174.15 147.99 220.2C147.37 247.24 147.89 274.31 147.87 301.37C147.86 315.44 143.51 328.02 134.85 339.1C129.95 345.37 123.66 350.01 117.14 354.45C110.05 359.28 110.28 369.12 117.34 373.57C119.88 375.17 122.69 375.36 125.6 375.35C168.87 375.34 212.14 375.35 255.41 375.35ZM222.11 399.45C226.45 413.46 240.86 423.43 256.22 423.22C271.08 423.02 285.3 412.79 289.11 399.45H222.11Z" fill="black"/>
</svg>
