<svg width="512" height="512" viewBox="0 0 512 512" fill="none" xmlns="http://www.w3.org/2000/svg">
<path d="M68.6899 432.94V289.29C69.7799 288.99 69.6199 287.9 69.9299 287.17C73.2199 279.42 78.9899 275.06 87.4299 274.9C98.3799 274.69 109.34 274.73 120.3 274.89C127.64 275 133.14 278.64 136.54 285.02C137.69 287.17 138.88 287.74 141.1 287.63C152.87 287.08 164.46 288 175.54 292.43C175.81 292.55 176.09 292.67 176.36 292.79C176.31 292.5 176.27 292.2 176.22 291.91C165.98 274.11 161.93 255.12 165.99 234.85C166.88 230.42 165.33 229.32 161.79 227.66C132.31 213.84 116.42 189.63 109.91 158.55C105.32 136.63 107.15 114.38 107.11 92.25C107.1 85.77 112.58 81.02 119.02 80.54C122.25 80.3 125.49 80.15 128.7 79.75C139.91 78.35 150.72 75.65 160.13 69.02C162.73 67.19 165.23 65.25 168.22 64.08H174.21C177.99 66.57 181.66 69.27 185.58 71.51C196.78 77.92 209.17 79.77 221.81 80.49C229.32 80.92 234.77 85.9 234.69 93.22C234.41 118.16 236.86 143.29 229.34 168.2C249.14 164.2 267.76 166.45 285.75 175.61V171.12C285.75 152.68 285.69 134.24 285.77 115.81C285.84 100.72 296.89 89.76 312.01 89.59C316.62 89.54 321.25 89.29 325.83 89.67C329.77 89.99 330.81 88.72 330.61 84.86C330.11 75.32 334.56 68.72 343.43 65.11C343.96 64.89 344.7 64.9 344.81 64.09H391.2C397.87 66.07 403.19 69.61 405.84 76.41C407.2 79.89 407.13 83.5 407 87.1C406.92 89.08 407.56 89.67 409.52 89.62C414.38 89.5 419.24 89.57 424.11 89.58C441.21 89.61 451.8 100.22 451.8 117.37C451.81 145.67 451.81 173.97 451.8 202.28C451.8 219.59 441.2 230.13 423.79 230.13C393.37 230.14 362.94 230.13 332.52 230.13H328.64C335.47 272.09 320.53 303.3 283.84 324.36C292.31 333.18 295.43 343.62 291.61 355.73C291.01 357.63 291.84 357.78 293.34 357.8C296.98 357.84 300.49 357.33 303.98 356.17C342.17 343.39 380.38 330.69 418.58 317.94C423.02 316.46 427.5 315.63 432.16 316.59C442.46 318.7 449.6 326.01 451.5 336.37C453.26 345.94 448.62 355.42 439.18 361.17C400.62 384.67 361.98 408.03 323.49 431.66C313.29 437.92 302.52 440.85 290.58 440.82C239.58 440.67 188.59 440.76 137.59 440.76C135.74 440.76 134.01 440.63 132.42 442.17C128.66 445.81 123.97 447.21 118.77 447.18C110.42 447.13 102.04 446.79 93.7099 447.26C82.1999 447.91 73.4199 444.48 69.0599 433.05C69.0199 432.97 68.8199 432.97 68.6899 432.94ZM219.54 427.95C243.47 427.95 267.41 427.83 291.34 428.01C300.48 428.08 308.69 425.79 316.45 421.01C339.43 406.85 362.53 392.89 385.58 378.85C401.3 369.27 417.01 359.68 432.75 350.12C437.08 347.49 439.46 343.82 438.88 338.68C438.36 334.08 434.93 330.43 430.43 329.25C427.63 328.52 425.03 329.26 422.4 330.14C387.39 341.83 352.31 353.31 317.4 365.27C306.4 369.04 295.43 371.07 283.78 370.71C269.58 370.26 255.36 370.56 241.15 370.63C237.8 370.65 234.41 370.8 231.1 371.27C222.01 372.55 214.17 376.73 206.73 381.91C203.35 384.26 199.58 383.49 197.51 380.5C195.55 377.67 196.2 373.85 199.28 371.6C210.16 363.67 222.11 358.34 235.77 358.01C248.35 357.71 260.95 357.79 273.54 357.84C275.85 357.85 277.23 357.1 278.22 355.06C281.51 348.3 281.38 341.8 276.69 335.77C271.83 329.53 265.34 326.09 257.4 325.97C246.43 325.8 235.46 325.89 224.49 325.9C209.29 325.91 195.6 321.46 183.49 312.23C181.71 310.87 179.89 309.55 178.02 308.33C167.2 301.28 155.12 299.89 142.57 300.29C139.75 300.38 138.88 300.91 138.89 303.91C139 344.05 138.99 384.18 138.9 424.32C138.89 427.15 139.48 428.03 142.5 428.02C168.18 427.89 193.86 427.95 219.54 427.95ZM177.21 253.16C178.17 275.3 189.27 295.77 211.84 309.75C215.69 312.13 219.67 313.23 224.19 313.18C234.66 313.05 245.12 313.16 255.59 313.13C259.6 313.12 263.59 313.38 267.37 314.76C269.53 315.55 271.38 315.35 273.44 314.52C304.44 302.14 322.51 269.56 316.51 236.74C309.86 200.38 277.48 176.11 239.97 179.38C205.14 182.41 177.26 213.35 177.21 253.16ZM368.78 102.34C350.34 102.34 331.9 102.33 313.46 102.34C303.52 102.35 298.49 107.34 298.49 117.23C298.48 138.29 298.53 159.34 298.44 180.4C298.43 182.85 299.09 184.51 301.02 186.1C310.38 193.82 317.6 203.27 322.63 214.3C323.71 216.68 325.01 217.44 327.6 217.43C359.75 217.33 391.9 217.37 424.04 217.36C433.99 217.36 439.02 212.37 439.02 202.5C439.03 174.09 439.03 145.68 439.02 117.27C439.02 107.33 434.04 102.34 424.11 102.34H368.78ZM221.98 121.82V100.27C221.98 93.76 221.98 93.76 215.43 92.92C214.32 92.78 213.2 92.69 212.09 92.55C197.71 90.79 184.02 87.05 172.32 78.04C170.8 76.87 170.07 77.31 168.93 78.23C164.82 81.51 160.27 84.01 155.43 86.05C144.99 90.46 134 92.4 122.78 93.08C120.11 93.24 119.57 94.06 119.61 96.56C119.77 107.15 119.65 117.74 119.74 128.33C119.84 139.06 120.79 149.71 123.33 160.17C129.47 185.5 143.1 204.95 167.22 216.22C169.69 217.37 170.84 217.4 172.19 214.52C180.53 196.63 193.62 183.26 211.42 174.64C213.53 173.62 214.59 172.25 215.33 170.12C220.97 153.63 222.57 136.62 221.98 121.82ZM81.4399 360.72C81.4399 382.53 81.4299 404.33 81.4399 426.14C81.4399 432.26 83.6199 434.4 89.8099 434.41C99.2799 434.43 108.75 434.44 118.22 434.41C123.85 434.39 126.19 432.09 126.19 426.46C126.21 382.85 126.21 339.24 126.19 295.63C126.19 289.89 124 287.66 118.35 287.64C108.88 287.6 99.4099 287.62 89.9399 287.63C83.4599 287.64 81.4399 289.64 81.4399 296.06V360.72ZM368.4 89.58C376.13 89.58 383.86 89.6 391.59 89.55C392.47 89.54 393.6 90.09 394.21 88.85C396.88 83.43 392.82 76.87 386.69 76.85C375.47 76.8 364.25 76.83 353.03 76.84C344.83 76.84 343.27 78.54 343.18 86.66C343.15 89.25 344.04 89.68 346.33 89.63C353.69 89.5 361.05 89.58 368.4 89.58Z" fill="#030303"/>
<path d="M176.22 291.92C176.27 292.21 176.31 292.51 176.36 292.8C176.09 292.68 175.81 292.56 175.54 292.44C175.77 292.26 175.99 292.09 176.22 291.92Z" fill="#FDFDFD"/>
<path d="M272.95 228.95C273.05 233.4 270.74 236.22 266.88 236.36C262.99 236.51 260.65 234.1 260.21 229.5C259.61 223.24 255.43 218.45 249.75 217.51C243.84 216.53 238.01 219.66 235.7 225.05C233.39 230.45 235.15 236.88 239.97 240.39C242.24 242.05 244.83 242.77 247.65 242.89C260.84 243.45 270.64 251.98 272.75 264.68C274.66 276.16 267.83 287.65 256.25 292.21C254.7 292.82 253.83 293.42 253.55 295.21C253.05 298.5 250.67 300.22 247.53 300.26C244.39 300.3 241.99 298.65 241.38 295.37C241.04 293.53 240.14 292.83 238.46 292.14C228.63 288.09 222.96 280.76 222.07 270.07C221.66 265.23 223.94 262.37 227.88 262.12C231.88 261.87 234.32 264.36 234.77 269.18C235.48 276.68 241.37 281.69 248.75 281.07C255.38 280.51 260.54 274.51 260.22 267.74C259.89 260.88 254.51 255.93 247.07 255.63C235.06 255.14 225.45 247.45 222.72 236.14C219.75 223.85 226.1 211.29 237.82 206.6C239.8 205.81 241.08 205.08 241.53 202.73C242.11 199.66 244.59 198.17 247.58 198.22C250.58 198.27 252.96 199.87 253.48 202.94C253.83 205.03 254.86 205.71 256.64 206.39C266.19 210.09 272.75 219.27 272.95 228.95ZM413.51 159.77C413.58 184.25 393.38 204.54 368.86 204.61C344.39 204.68 324.1 184.46 324.02 159.95C323.95 135.47 344.16 115.17 368.67 115.1C393.12 115.04 413.44 135.28 413.51 159.77ZM400.73 159.91C400.79 142.48 386.46 128.06 368.92 127.91C351.51 127.75 337.08 142.01 336.83 159.61C336.58 177.09 351.25 191.87 368.8 191.82C386.28 191.76 400.66 177.38 400.73 159.91ZM157.14 156.84C165.59 145.6 173.64 134.87 181.69 124.15C184.75 120.07 187.75 115.95 190.87 111.92C193.49 108.53 197.39 107.87 200.31 110.16C203.14 112.38 203.6 116.13 201.11 119.47C188.62 136.22 176.1 152.94 163.5 169.6C160.56 173.49 156.74 173.73 153.24 170.4C149.19 166.54 145.25 162.55 141.35 158.52C138.3 155.37 138.24 151.59 141.01 148.95C143.69 146.4 147.24 146.51 150.3 149.48C152.62 151.74 154.71 154.21 157.14 156.84Z" fill="#030303"/>
<path d="M368.88 140.72C371.7 140.98 373.94 142.27 374.79 145.32C375.05 146.27 375.15 147.28 375.19 148.27C375.39 153.31 375.37 153.31 380.24 153.45C385.02 153.59 387.88 155.95 387.92 159.79C387.96 163.61 385.05 166.11 380.36 166.27C375.33 166.44 375.33 166.44 375.19 171.32C375.05 176.05 372.65 178.95 368.83 179C364.98 179.05 362.53 176.17 362.39 171.45C362.24 166.41 362.24 166.41 357.3 166.27C352.52 166.14 349.69 163.79 349.65 159.92C349.61 156.04 352.43 153.61 357.17 153.45C362.18 153.28 362.18 153.28 362.38 148.02C362.57 143.54 364.98 140.76 368.88 140.72Z" fill="#030303"/>
</svg>
