<svg width="512" height="512" viewBox="0 0 512 512" fill="none" xmlns="http://www.w3.org/2000/svg">
<path d="M55.5601 433.1C59.6401 423.5 62.4701 413.45 65.9801 403.65C68.1601 397.53 70.6501 391.48 72.2201 385.2C73.9301 378.38 68.6501 373.11 66.8701 367.03C56.7901 332.44 59.6601 299.29 77.0701 267.62C85.1101 253 95.8101 240.57 108.96 230.28C110.67 228.94 111.43 227.59 111.49 225.36C113.66 144.03 173.04 75.14 253.44 60.6C346.26 43.81 437.26 106.7 453.65 199.1C460 234.89 455.83 269.47 440.68 302.59C439.41 305.36 439.32 307.68 440.3 310.49C447.68 331.64 454.69 352.92 462.3 373.98C469.58 394.15 453.85 412.31 435.2 410.73C431.58 410.42 428.21 409.2 424.83 408.05C404.27 401.01 383.71 393.96 363.19 386.8C360.75 385.95 358.74 386.04 356.39 387.14C335.95 396.7 314.43 401.99 291.87 402.84C289.34 402.94 287.82 403.93 286.28 405.84C256.71 442.3 218.5 458.35 171.8 453.75C159.34 452.52 147.32 449.06 135.9 443.82C133.81 442.86 131.98 442.88 129.86 443.62C116.1 448.42 102.31 453.16 88.5201 457.88C72.7501 463.28 62.5401 458.6 56.1801 443.12C56.1001 442.92 55.7801 442.82 55.5801 442.68C55.5601 439.48 55.5601 436.29 55.5601 433.1ZM432.11 227.58C431.73 217.32 430.64 207.17 428.21 197.18C419.24 160.27 399.21 130.7 368.17 109C337.07 87.26 302.29 78.97 264.62 83.71C231.46 87.88 202.96 102.08 179.37 125.59C155.88 148.99 141.66 177.3 137.13 210.27C133.95 233.43 136.02 256.18 143.64 278.27C152.45 303.79 167.2 325.42 187.74 343C211.1 363 238.14 374.73 268.68 378C297.68 381.11 325.28 375.81 351.29 362.62C355.89 360.28 360.23 360.1 365.06 361.78C388.09 369.8 411.19 377.65 434.26 385.54C435.83 386.08 437.57 387.3 439.06 385.68C440.47 384.14 439.32 382.43 438.77 380.83C431.32 359.14 424.12 337.37 416.29 315.82C413.49 308.11 413.92 301.63 417.61 294.24C428.06 273.33 432.47 250.91 432.11 227.58ZM257.37 401.81C179.02 384.66 131.11 337.42 113.09 259.47C109.41 263.21 105.98 267.54 102.87 272.14C91.1501 289.47 85.3101 308.67 85.4001 329.52C85.4701 344.83 88.7501 359.58 95.7401 373.29C98.5301 378.77 98.7701 383.85 96.6301 389.66C91.6001 403.34 87.0801 417.21 82.3801 431C82.0201 432.04 81.2301 433.07 82.0301 434.42C96.9901 429.27 111.94 424.26 126.78 418.93C132.01 417.05 136.71 417.18 141.69 419.66C161.17 429.4 181.76 432.45 203.22 429.02C224.12 425.67 242.12 416.39 257.37 401.81Z" fill="#020202"/>
<path d="M283.97 190.47C260.04 190.47 236.11 190.52 212.17 190.44C203.01 190.41 197.14 182.49 200.04 174.27C201.58 169.91 204.73 167.28 209.27 166.42C210.57 166.18 211.91 166.11 213.24 166.11C260.31 166.09 307.37 166.08 354.44 166.11C362.61 166.12 367.91 170.43 368.42 177.23C368.98 184.81 363.53 190.42 355.37 190.44C335.56 190.49 315.75 190.46 295.94 190.46C291.95 190.47 287.96 190.47 283.97 190.47ZM283.99 216.09C307.66 216.09 331.32 216.06 354.99 216.11C363.3 216.13 368.79 221.49 368.44 229C368.19 234.33 364.41 238.92 359.16 240.03C357.36 240.41 355.47 240.53 353.62 240.54C307.09 240.57 260.55 240.54 214.02 240.59C207.96 240.6 202.9 238.99 200.3 233.07C196.69 224.85 202.68 216.25 212.19 216.14C224.55 215.99 236.92 216.1 249.28 216.1C260.86 216.09 272.42 216.09 283.99 216.09Z" fill="#040404"/>
<path d="M255.89 266.23C270.79 266.23 285.68 266.16 300.58 266.26C306.85 266.3 311.75 270.63 312.56 276.41C313.39 282.34 310.26 287.58 304.74 289.71C303.19 290.31 301.62 290.4 300.04 290.4C270.65 290.42 241.26 290.46 211.87 290.39C205.1 290.37 200.29 286.13 199.4 279.85C198.58 274.13 202.31 268.53 208.08 266.7C209.91 266.12 211.76 266.23 213.61 266.23C227.71 266.21 241.8 266.22 255.9 266.22C255.89 266.22 255.89 266.22 255.89 266.23Z" fill="#020202"/>
</svg>
