<svg width="512" height="512" viewBox="0 0 512 512" fill="none" xmlns="http://www.w3.org/2000/svg">
<path d="M0.0800781 397.3V111.4C1.80008 110.22 1.52008 108.18 1.94008 106.55C8.55008 80.89 31.6101 62.48 58.1201 62.46C190.03 62.37 321.94 62.26 453.85 62.57C477.69 62.62 495.09 74.56 506.11 95.79C508.86 101.09 509.51 107.03 511.9 112.41V397.31C510.82 397.55 510.94 398.48 510.78 399.26C505.01 426.82 480.46 446.85 448.85 446.51C383.4 445.81 317.94 446.3 252.49 446.3C188.03 446.3 123.58 446.35 59.1201 446.28C31.5601 446.25 8.77008 428.32 1.82008 401.69C1.45008 400.21 1.87008 398.26 0.0800781 397.3ZM159.83 361.07C185.98 361.07 212.13 361.11 238.28 361.05C249.53 361.02 255.94 354.52 256.01 343.37C256.03 340.54 256.02 337.71 256.01 334.88C255.85 301.84 230.36 275.99 197.22 275.65C172.41 275.39 147.58 275.37 122.77 275.67C103.08 275.91 87.0601 284.09 75.2901 299.97C67.6301 310.3 64.5801 322.1 63.9301 334.95C62.7801 357.5 70.8001 361.72 89.8801 361.21C113.18 360.6 136.51 361.07 159.83 361.07ZM213.24 200.96C213.2 171.54 189.05 147.44 159.83 147.67C130.56 147.9 106.94 171.61 106.83 200.87C106.72 230.3 130.59 254.32 159.98 254.34C189.38 254.37 213.27 230.42 213.24 200.96ZM372.95 275.6C392.26 275.6 411.57 275.66 430.88 275.58C440.77 275.54 447.82 268.93 447.94 259.9C448.06 250.65 440.92 243.66 430.83 243.64C392.55 243.56 354.26 243.61 315.98 243.6C311.88 243.6 308.07 244.52 304.79 247.11C299.57 251.23 297.4 258.33 299.45 264.6C301.57 271.1 307.32 275.5 314.53 275.55C334 275.66 353.47 275.58 372.95 275.6ZM373.64 329.09V329.07C354.33 329.07 335.02 329.02 315.71 329.09C305.62 329.13 298.85 335.5 298.76 344.76C298.67 354.14 305.63 361.01 315.78 361.03C354.06 361.12 392.35 361.07 430.63 361.06C434.01 361.06 437.24 360.44 440.17 358.65C446.08 355.03 449.14 347.93 447.58 341.5C445.82 334.25 439.76 329.19 432.07 329.14C412.59 329.01 393.11 329.09 373.64 329.09ZM372.89 190.38C392.03 190.38 411.17 190.4 430.32 190.37C440.76 190.35 448.04 183.6 447.93 174.16C447.82 164.95 440.59 158.4 430.39 158.4C392.44 158.38 354.49 158.38 316.54 158.4C305.85 158.4 298.8 164.77 298.79 174.34C298.77 183.85 305.91 190.36 316.48 190.37C335.27 190.39 354.08 190.38 372.89 190.38Z" fill="black"/>
</svg>
