<svg width="512" height="512" viewBox="0 0 512 512" fill="none" xmlns="http://www.w3.org/2000/svg">
<path d="M256.03 387.71H126.63C103.66 387.71 88.3898 372.51 88.3898 349.63C88.3798 303.13 88.3798 256.63 88.3898 210.13C88.3998 187.47 103.69 172.23 126.4 172.21C141.61 172.2 156.82 172.22 172.03 172.2C179.13 172.19 182.79 169.64 185.28 162.97C187.19 157.85 188.95 152.67 190.92 147.57C196.35 133.49 209.33 124.41 224.36 124.34C245.43 124.24 266.5 124.25 287.57 124.34C302.64 124.41 315.57 133.41 321.06 147.5C323 152.48 324.69 157.55 326.52 162.57C329.11 169.63 332.76 172.19 340.26 172.2C355.59 172.21 370.93 172.18 386.26 172.21C408.15 172.25 423.58 187.71 423.6 209.67C423.63 256.55 423.63 303.42 423.6 350.3C423.59 372.23 408.12 387.68 386.19 387.7C342.8 387.73 299.42 387.71 256.03 387.71ZM255.67 363.77H385.82C395 363.77 399.66 359.15 399.66 350.03C399.67 303.28 399.67 256.53 399.66 209.79C399.66 200.9 394.94 196.18 386.08 196.17C370.37 196.16 354.67 196.21 338.96 196.15C323.07 196.09 310.19 187.05 304.58 172.11C302.66 166.99 300.87 161.83 298.91 156.73C296.69 150.95 292.83 148.3 286.63 148.29C266.19 148.26 245.74 148.26 225.3 148.29C219.15 148.3 215.27 151.01 213.06 156.81C211.2 161.68 209.5 166.62 207.67 171.5C201.76 187.31 189.08 196.13 172.2 196.16C156.99 196.18 141.78 196.16 126.57 196.17C116.9 196.17 112.34 200.68 112.34 210.26V349.38C112.34 359.31 116.77 363.77 126.65 363.77H255.67Z" fill="black"/>
<path d="M209.66 218.58C225.69 205.14 243.67 198.68 264.08 199.24C295.65 200.11 321.1 221.6 327.35 252.6C328.86 260.1 324.91 266.36 317.79 267.74C311.37 268.98 305.37 264.47 303.88 257.25C301.15 243.98 293.82 234.06 281.84 227.82C264.75 218.92 240.89 222.8 225.48 236.76C222.57 239.4 219.73 242.14 217.54 245.96C223.1 246.58 228.25 247.16 233.4 247.73C240.32 248.5 245.3 254.25 244.59 260.69C243.84 267.51 237.92 272.28 230.94 271.56C219.79 270.41 208.64 269.2 197.49 267.98C190.95 267.27 186.65 262.47 186.45 255.54C186.09 243.2 185.78 230.86 185.54 218.52C185.4 211.35 189.77 206.24 196.32 205.66C202.89 205.08 208.02 209.28 209.35 216.33C209.48 216.93 209.53 217.55 209.66 218.58ZM295.62 302.77C289.93 302.15 284.62 301.63 279.32 300.97C272.54 300.12 267.92 294.18 268.77 287.54C269.58 281.19 275.58 276.54 282.13 277.22C293.15 278.37 304.17 279.55 315.2 280.72C321.79 281.42 326.29 285.36 326.62 291.92C327.3 305.36 327.63 318.82 327.72 332.28C327.76 338.33 322.32 343.22 316.28 343.46C310.51 343.69 305.13 339.32 304.04 333.47C303.86 332.51 303.86 331.52 303.77 330.41C303.36 330.59 302.98 330.67 302.73 330.88C268.64 360.98 223 350.43 199.1 320.69C193.58 313.83 189.44 306.23 186.54 297.95C183.94 290.53 186.86 283.75 193.55 281.45C200.16 279.18 206.29 282.54 209.05 289.81C216.36 309.08 230.09 320.71 250.43 324.44C266.47 327.39 287.25 317.56 295.62 302.77Z" fill="black"/>
</svg>
