<svg width="512" height="512" viewBox="0 0 512 512" fill="none" xmlns="http://www.w3.org/2000/svg">
<path d="M344.42 219.27C350.8 212.88 356.57 207.09 362.36 201.32C370.12 193.59 379.19 193.6 387.01 201.37C394.09 208.4 401.14 215.45 408.16 222.53C415.7 230.13 415.74 239.37 408.2 246.93C387.77 267.41 367.32 287.86 346.82 308.26C345.11 309.96 344.36 311.63 344.36 314.07C344.44 343.99 344.42 373.91 344.41 403.83C344.41 415.78 338.2 421.99 326.23 422C261.78 422.01 197.32 421.86 132.87 422.14C121.73 422.19 114.42 414.7 114.45 403.64C114.7 309.51 114.7 215.39 114.45 121.26C114.42 110.12 121.8 102.69 132.85 102.74C197.3 103.02 261.76 102.87 326.21 102.88C338.21 102.88 344.41 109.07 344.41 121.02C344.42 152.19 344.41 183.36 344.41 214.52C344.42 215.82 344.42 217.14 344.42 219.27ZM318.91 336.18C317.92 335.52 317.29 336.12 316.62 336.37C302.36 341.85 288.08 347.28 273.86 352.86C268.24 355.06 263.08 354.91 258.67 350.51C254.26 346.11 254.05 340.95 256.28 335.33C261.6 321.93 266.79 308.49 271.99 295.05C273.5 291.15 275.73 287.84 278.73 284.88C291.32 272.44 303.77 259.84 316.36 247.39C318.17 245.6 319 243.84 318.98 241.24C318.86 224.16 318.81 207.08 319.01 190C319.05 186.5 318.05 185.77 314.71 185.78C257.85 185.88 201 185.88 144.14 185.78C141 185.77 140.03 186.32 140.04 189.74C140.16 257.32 140.16 324.9 140.05 392.48C140.05 395.7 140.71 396.54 144.05 396.53C200.91 396.41 257.76 396.44 314.62 396.44C315.37 396.44 316.12 396.37 316.86 396.45C318.53 396.63 318.95 395.88 318.95 394.29C318.9 374.87 318.91 355.43 318.91 336.18ZM229.2 160.24C257.86 160.24 286.52 160.21 315.18 160.29C317.91 160.3 319.09 159.88 318.99 156.71C318.74 148.37 318.8 140.01 318.97 131.67C319.02 129.11 318.43 128.33 315.74 128.33C258.17 128.41 200.6 128.41 143.02 128.33C140.38 128.33 140.04 129.26 140.07 131.51C140.18 139.98 140.27 148.46 140.03 156.93C139.94 159.91 140.95 160.31 143.59 160.3C172.13 160.2 200.67 160.24 229.2 160.24ZM290.49 318.9C298.98 315.34 307.05 312.78 313.47 305.89C327.21 291.14 341.81 277.17 356.15 262.99C358 261.16 358.15 260.06 356.12 258.39C354.201 256.796 352.434 255.029 350.84 253.11C349.27 251.23 348.29 251.38 346.58 253.1C332.65 267.18 318.9 281.44 304.5 295.02C297.51 301.61 293.1 309.2 290.49 318.9ZM384.57 235.19C383.68 234.21 383.3 233.75 382.88 233.33C380.6 231.04 378.21 228.84 376.04 226.44C374.82 225.09 374.16 225.64 373.12 226.59C366.43 232.64 366.41 232.62 372.75 238.96C376.41 242.62 376.38 242.59 380.17 238.89C381.5 237.6 383.01 236.49 384.57 235.19Z" fill="#020202"/>
<path d="M226.14 220.94C243.84 220.94 261.55 220.97 279.25 220.92C284.51 220.9 288.78 222.62 291.53 227.26C295.94 234.69 291.84 244.16 283.4 246.04C281.96 246.36 280.44 246.5 278.96 246.5C243.8 246.52 208.64 246.54 173.49 246.51C164.67 246.5 158.7 240.65 159.31 232.8C159.8 226.46 164.45 221.54 170.8 221.1C175.27 220.79 179.77 220.94 184.26 220.94C198.22 220.93 212.18 220.94 226.14 220.94ZM203.83 300.68C193.61 300.68 183.38 300.71 173.16 300.67C164.92 300.64 159.18 295.32 159.25 287.85C159.32 280.38 165.06 275.18 173.36 275.18C193.81 275.16 214.26 275.16 234.71 275.18C242.87 275.19 248.7 280.63 248.64 288.06C248.58 295.42 242.93 300.63 234.88 300.67C224.53 300.71 214.18 300.68 203.83 300.68ZM197.67 332.7C205.89 332.7 214.12 332.66 222.34 332.71C230.2 332.75 235.96 338.26 235.87 345.55C235.79 352.7 230.08 358.16 222.45 358.18C205.88 358.23 189.3 358.23 172.73 358.18C164.87 358.16 159.14 352.62 159.23 345.3C159.32 338.06 164.9 332.76 172.61 332.71C180.98 332.66 189.32 332.7 197.67 332.7Z" fill="#020202"/>
</svg>
