<svg width="512" height="512" viewBox="0 0 512 512" fill="none" xmlns="http://www.w3.org/2000/svg">
<path d="M267.06 372.67C220.55 372.67 174.04 372.37 127.53 372.83C111.6 372.99 102.21 360.88 102.31 347.76C102.7 292.52 102.47 237.28 102.49 182.05C102.49 170.4 108.4 162.19 118.89 159.02C121.66 158.18 124.51 158.02 127.38 158.02C220.65 158.02 313.92 158.01 407.19 158.03C422.56 158.03 431.87 167.33 431.87 182.64C431.88 237.88 431.89 293.12 431.87 348.35C431.87 363.44 422.55 372.66 407.35 372.67C360.58 372.68 313.82 372.67 267.06 372.67ZM405.48 361.11C377.1 327.08 349.16 293.62 321.3 260.08C319.68 258.12 318.76 258.64 317.17 259.93C308.57 266.92 299.9 273.83 291.22 280.73C275.99 292.84 258.18 292.78 242.98 280.6C234.72 273.98 226.31 267.54 218.23 260.69C215.44 258.32 214.21 258.6 211.96 261.31C185.02 293.84 157.95 326.25 130.93 358.72C130.37 359.39 129.22 359.84 129.64 361.11H405.48ZM123.26 169.89C124.43 170.92 124.96 171.43 125.53 171.89C166.76 204.9 207.99 237.9 249.24 270.9C261.67 280.84 272.84 280.75 285.35 270.73C326.29 237.95 367.24 205.19 408.17 172.4C408.97 171.76 410.17 171.38 410.37 169.88C314.88 169.89 219.49 169.89 123.26 169.89ZM417.32 357.49C420 354.71 420.46 351.7 420.46 348.52C420.46 293.03 420.46 237.55 420.44 182.06C420.44 180.79 420.71 179.4 419.51 178.1C389.12 202.41 358.89 226.6 328.51 250.9C358.14 286.45 387.65 321.87 417.32 357.49ZM114.72 178.09C113.58 179.51 113.88 180.93 113.88 182.27C113.86 237.62 113.87 292.97 113.85 348.32C113.85 350.34 114.02 352.32 114.74 354.19C116.01 357.53 116.74 357.66 118.99 354.96C147.25 321.09 175.49 287.21 203.8 253.38C205.37 251.51 205.64 250.64 203.46 248.91C175.08 226.35 146.8 203.67 118.49 181.02C117.26 180.02 115.99 179.07 114.72 178.09Z" fill="black"/>
</svg>
