<svg width="512" height="512" viewBox="0 0 512 512" fill="none" xmlns="http://www.w3.org/2000/svg">
<path d="M453.64 259.76C447.12 270.02 440.47 280.19 432.72 289.59C402.22 326.6 365.28 354.3 318.71 367.78C280.52 378.83 242.26 378.34 204.11 367.31C203.64 367.17 203.21 366.9 202.28 366.46C208.59 360.2 214.76 354.13 220.87 348C221.98 346.88 223.17 347.28 224.35 347.52C285.12 360.2 338.06 343.69 384.77 304.31C400.58 290.98 414.11 275.54 425.94 258.58C427.32 256.6 427.21 255.33 425.87 253.42C411.43 232.87 394.42 214.78 374.38 199.61C372.05 197.85 371.64 196.93 373.97 194.79C378.47 190.67 382.71 186.26 386.96 181.86C388.27 180.5 389.12 180 390.88 181.4C415 200.41 435.37 222.75 451.4 248.99C452.2 250.3 452.89 251.68 453.63 253.03C453.64 255.27 453.64 257.51 453.64 259.76ZM262.26 136.28C290.39 136.35 317.39 141.87 343.16 153.17C345.68 154.28 347.19 154.14 349.19 152.1C361.07 140 373.09 128.04 385.13 116.1C389.2 112.06 394.4 111.26 399.18 113.68C403.68 115.96 406.25 120.72 405.67 125.72C405.26 129.27 403.23 131.85 400.79 134.28C372.64 162.38 344.52 190.51 316.4 218.63C257.68 277.35 198.96 336.05 140.28 394.8C136.79 398.29 132.96 400.48 127.96 399.39C123.5 398.42 120.41 395.69 119.04 391.25C117.57 386.5 118.81 382.41 122.26 378.94C132.3 368.88 142.35 358.83 152.4 348.78C155.45 345.73 155.42 345.77 151.66 343.36C119.77 322.94 93.93 296.53 73.64 264.61C70.37 259.46 69.28 254.41 72.76 248.93C104.15 199.42 146.08 163.08 202.63 145.07C221.46 139.09 241.78 136.27 262.26 136.28ZM327.83 173.21C327.41 172.9 327.14 172.6 326.81 172.47C285.78 156.85 244.37 155.79 202.98 170.41C158.54 186.11 124.82 215.68 98.02 253.81C96.75 255.62 97.01 256.7 98.15 258.33C117.64 286.16 141.65 309.14 170.94 326.52C172.78 327.61 173.74 327.57 175.26 326.01C183.81 317.29 192.43 308.64 201.19 300.12C203.16 298.21 203.29 297 201.77 294.66C180.34 261.81 189.6 217.19 222.75 196.12C248.61 179.68 275.03 180.01 301.23 195.93C302.36 196.62 303.29 198 304.97 196.27C312.49 188.52 320.16 180.91 327.83 173.21ZM285.64 214.85C268.81 203.33 242.92 206.89 227.67 222.77C211.1 240.02 210.96 264.83 220.99 279.53L285.64 214.85Z" fill="black"/>
<path d="M331.48 237.19C337.53 264.26 331.67 287.28 312.94 306.57C295.03 325.02 268.37 332.09 243.44 325.18C246.62 322.09 249.53 319.27 252.43 316.44C253.59 315.31 254.78 314.2 255.86 312.99C260.95 307.29 266.53 303.42 274.6 301.61C293.67 297.34 306.98 281.06 309.3 261.71C309.45 260.47 309.58 259.28 310.55 258.3C317.32 251.51 324.06 244.69 331.48 237.19Z" fill="black"/>
</svg>
