<svg width="512" height="512" viewBox="0 0 512 512" fill="none" xmlns="http://www.w3.org/2000/svg">
<path d="M51.28 258.17C68.27 234.34 88.49 213.5 110.72 194.58C137.63 171.67 166.99 152.78 200.75 141.35C240.83 127.77 280.52 129.16 319.82 144.4C354.41 157.81 384.2 178.72 411.46 203.48C427.65 218.19 442.42 234.23 456 251.37C457.89 253.75 459.05 256.5 460.73 258.97V266.15C443.73 289.97 423.49 310.79 401.29 329.75C375.33 351.92 346.98 370.25 314.64 381.86C272.88 396.85 231.37 395.58 190.28 379.23C162.47 368.16 137.63 352.14 114.67 333.14C92.903 315.14 73.16 294.823 55.79 272.55C54.19 270.5 52.79 268.29 51.29 266.15C51.28 263.49 51.28 260.83 51.28 258.17ZM255.96 365.37C282.26 365.42 306.61 357.82 329.68 345.93C368.52 325.91 400.15 297.1 428.35 264.2C429.89 262.4 429.43 261.45 428.14 259.92C421.35 251.88 414.2 244.16 406.79 236.7C380.52 210.3 351.6 187.52 317.12 172.56C299.68 164.99 281.57 160.01 262.44 159.1C233.83 157.73 207.39 165.5 182.33 178.4C143.48 198.4 111.86 227.23 83.66 260.12C82.12 261.92 82.57 262.88 83.87 264.39C111.84 296.94 143.18 325.48 181.57 345.46C204.82 357.58 229.37 365.39 255.96 365.37Z" fill="black"/>
<path d="M256 342.91C211.3 342.91 175 306.63 175.1 262.07C175.2 217.41 211.6 181.22 256.2 181.42C300.85 181.62 336.8 217.55 336.91 262.06C337.01 306.61 300.69 342.91 256 342.91ZM256.17 208.29C226.67 208.04 202.58 231.84 202.02 261.78C201.48 291.17 225.86 315.76 255.81 316.02C285.3 316.28 309.46 292.4 309.92 262.53C310.38 233.03 286.12 208.55 256.17 208.29Z" fill="black"/>
</svg>
