<svg width="512" height="512" viewBox="0 0 512 512" fill="none" xmlns="http://www.w3.org/2000/svg">
<path d="M511.9 245.01V332.98C509.33 338.16 506.05 343.06 499.92 343.62C495.69 344 495.83 345.96 495.83 348.96C495.88 384.27 495.87 419.58 495.86 454.89C495.86 466.81 490.03 472.67 478.1 472.67C330.03 472.68 181.95 472.68 33.8801 472.67C21.9301 472.67 16.1201 466.83 16.1101 454.9C16.1001 419.76 16.1101 384.61 16.1101 349.47C16.1101 348.3 16.1101 347.14 16.1001 345.97C16.0901 344.92 15.9801 344.06 14.5301 344.02C7.07008 343.83 3.13008 338.98 0.0800781 332.98V245.01C3.79008 236.49 10.2801 233.28 19.4901 233.77C29.2901 234.29 39.1601 233.49 48.9501 234.02C55.6701 234.38 60.8501 232.66 66.0201 228.22C75.4901 220.07 86.6901 214.54 98.4001 209.81C55.2601 172 55.3901 112.66 86.2901 75.55C116.83 38.86 169.98 30.22 210.29 55.74C230.32 68.42 244.22 86.16 250.81 108.92C260.77 143.3 252.81 174.07 229.33 201.76C252.45 201.76 274.56 201.76 296.67 201.74C297.09 201.74 297.52 201.46 298 201.29C255.59 153.39 272.34 89.08 310.99 60.25C350.37 30.88 405.69 35.76 438.98 72.47C455.31 90.47 463.77 111.83 463.67 136.06C463.53 168.42 449.63 194.25 423.74 214.17C434.19 219.45 443.5 225.46 451.85 232.85C453.3 234.14 454.89 233.89 456.53 233.89C468.52 233.88 480.53 234.27 492.5 233.75C501.71 233.36 508.19 236.51 511.9 245.01ZM285.13 232.67C284.33 231.44 283.42 231.79 282.67 231.79C235.87 231.79 189.07 231.77 142.27 231.84C125.45 231.86 109.81 236.29 95.1501 244.55C91.8201 246.42 91.3001 247.2 94.2801 250.24C117.05 273.43 115.44 309.92 90.9201 330.91C79.1901 340.95 65.4201 344.79 50.2001 344.03C47.5701 343.9 46.0201 344.04 46.0401 347.57C46.1901 378.05 46.1901 408.53 46.0501 439C46.0301 442.32 47.2401 442.79 50.1001 442.74C58.5901 442.58 67.1001 442.43 75.5801 442.79C79.7301 442.97 80.4501 441.48 80.4101 437.74C80.2401 418.26 80.3501 398.77 80.3101 379.28C80.3001 374.42 81.3601 369.96 85.0301 366.58C89.7301 362.25 95.2201 360.97 101.17 363.55C107.28 366.2 110.3 371.07 110.3 377.73C110.32 397.55 110.42 417.37 110.22 437.19C110.18 441.34 110.85 442.84 115.55 442.81C155.69 442.58 195.83 442.61 235.97 442.79C240.16 442.81 241.13 441.72 241.11 437.61C240.95 400.8 240.85 363.99 241.1 327.19C241.26 302.82 248.33 280.39 261.54 259.89C268.11 249.68 276.17 240.74 285.13 232.67ZM336.03 442.68C356.19 442.68 376.35 442.57 396.5 442.77C400.54 442.81 401.84 441.87 401.79 437.63C401.56 417.81 401.64 397.98 401.71 378.16C401.74 370.51 405.74 364.95 412.29 362.99C422.5 359.94 431.59 367.29 431.65 378.87C431.75 398.69 431.76 418.52 431.6 438.34C431.57 441.84 432.54 442.87 436.04 442.76C444.36 442.51 452.7 442.47 461.02 442.77C464.91 442.91 466 441.88 465.98 437.88C465.79 410.06 465.88 382.24 465.88 354.42C465.88 344.25 465.87 344.46 455.67 343.97C432.18 342.85 414.98 331.59 406.03 309.94C396.99 288.08 401.28 267.8 417.49 250.46C420.35 247.41 420.53 246.02 416.68 244.45C415.61 244.01 414.63 243.37 413.59 242.84C348.3 209.2 271.34 255.75 271.01 329.17C270.85 365.49 271.04 401.81 270.89 438.12C270.87 441.87 271.79 442.81 275.54 442.78C295.71 442.57 315.87 442.68 336.03 442.68ZM160.03 71.08C124 70.91 94.4001 100.18 94.2601 136.11C94.1201 171.99 123.52 201.58 159.49 201.76C195.06 201.94 224.76 172.53 224.96 136.9C225.17 100.85 195.97 71.25 160.03 71.08ZM368.61 71.08C332.57 71.02 303.1 100.36 303.08 136.31C303.06 172.19 332.7 201.85 368.49 201.76C404.22 201.67 433.62 172.38 433.8 136.69C433.97 100.76 404.54 71.14 368.61 71.08ZM481.91 289.33C481.91 281.85 481.82 274.37 481.96 266.9C482.01 264.52 481.32 263.78 478.91 263.83C471.1 263.99 463.28 263.73 455.48 263.97C442.28 264.37 431.86 275.3 431.71 288.6C431.56 302.14 441.96 313.5 455.26 313.97C463.06 314.25 470.88 313.93 478.69 314.13C481.36 314.2 482.03 313.34 481.97 310.78C481.81 303.63 481.91 296.48 481.91 289.33ZM30.0901 288.73C30.0901 295.88 30.2101 303.02 30.0301 310.17C29.9601 312.99 30.3401 314.3 33.7001 314.16C41.1701 313.86 48.6601 314.2 56.1301 314.01C69.5901 313.67 80.1801 302.7 80.2801 289.22C80.3801 275.45 69.8201 264.31 56.1201 263.96C48.6501 263.77 41.1601 264.11 33.6901 263.8C30.3201 263.66 29.9601 264.99 30.0301 267.8C30.2101 274.76 30.0901 281.75 30.0901 288.73Z" fill="#020202"/>
</svg>
