<svg version="1.2" xmlns="http://www.w3.org/2000/svg" viewBox="0 0 352 352" width="352" height="352">
<path d="m176.5 321.9c-19.2 0-38.4-0.1-57.6 0-10.2 0.1-18-3.9-22.9-12.7-4.9-9-3.9-17.9 1.9-26.4 4.5-6.5 8.7-13.3 13.2-19.9 1.4-2 0.9-2.7-0.9-3.9-28.3-19.8-45.3-46.7-50.8-80.7-8-48.9 17.8-99.8 62.2-122.8 70.5-36.6 155.4 3.7 171.5 81.5 9.6 45.9-10.1 94.3-49.3 121.1-2.5 1.7-3 2.7-1.2 5.3 4.6 6.4 8.7 13.1 13.1 19.6 5.6 8.4 6.4 17.3 1.6 26.1-4.8 8.7-12.4 12.9-22.5 12.8-19.4-0.1-38.9 0-58.3 0zm23.3-73.7c2.9 4.4 5.9 8.7 8.5 13.2 1.2 1.9 2.2 2 4.2 1.3 49.1-16.8 79.9-68.7 71-119.8-10.9-62.8-72.1-102.7-133.6-87.2-68.9 17.3-102.8 96.6-67.5 158.3 13.2 23.1 32.5 39.1 57.3 48.3 1.4 0.4 3.1 2.3 4.6 0 3-4.7 6.1-9.4 9.1-14.2-46.6-12.6-74-58.2-65.7-103.7 7.9-43.7 44.2-74 88.8-74.1 43.6-0.1 81.6 31.7 89.1 74.1 8 45.2-18.2 90.2-65.8 103.8zm-23.1 63q29 0 58 0c5.8 0 10.5-2.1 13.4-7.2 2.9-5.2 2.2-10.2-1-15.1q-7-10.8-13.8-21.8c-0.9-1.3-1.5-1.5-2.9-0.8q-6.1 3.3-12.6 5.5c-1.8 0.7-2.4 1.5-2.4 3.5 0.1 8-5.4 13.6-13.5 13.6q-25.1 0.2-50.1 0c-7.9 0-13.4-5.6-13.3-13.5 0-2.2-0.8-2.9-2.6-3.6-4.1-1.6-8.1-3.2-12-5.1-1.9-0.9-2.7-0.6-3.8 1.1-4.3 6.7-8.6 13.4-13.2 19.9-3.5 5.2-4.8 10.4-1.8 16.1 3.1 5.7 8.2 7.5 14.4 7.5 19.1-0.1 38.2-0.1 57.3-0.1zm-55.2-145.5c-7.4 0-14.9 0-22.4-0.1-1.9 0-2.6 0.4-2.3 2.6 1.7 16.1 7.6 30.5 17.8 43.1 1.3 1.6 2 1.8 3.6 0.2 10.4-10.5 20.9-21 31.4-31.4 1.2-1.2 1.8-2.1 0.6-3.7-1.8-2.5-2.8-5.3-3.4-8.3-0.4-2-1.3-2.5-3.2-2.5-7.4 0.1-14.7 0.1-22.1 0.1zm49.9-59.9c0-7.3-0.1-14.7 0-22 0.1-2.6-0.7-3.2-3.1-2.9-15.7 2-29.8 7.6-42.1 17.6-1.9 1.5-2.1 2.3-0.3 4.1q15.6 15.1 30.8 30.6c1.8 1.8 3 2.1 5.2 0.6 2-1.2 4.3-2.2 6.6-2.6 2.7-0.4 3-1.8 2.9-4.1-0.1-7.1 0-14.2 0-21.3zm10.5-0.3c0 6.4 0.3 13-0.2 19.4-0.2 4.1 0.8 6.2 5 6.8 2.1 0.2 4 1.4 5.7 2.6 1.4 1.1 2.2 0.8 3.4-0.3q15.9-16.1 32-32c1.2-1.3 1.1-1.9-0.2-2.9-12.5-10.4-26.9-16.3-43-18.2-2.1-0.2-2.8 0.3-2.8 2.5 0.2 7.4 0.1 14.7 0.1 22.1zm49.5 50.1c7.5 0 15 0 22.4 0 1.7 0 2.8 0 2.5-2.3-1.7-15.9-7.4-30.1-17.4-42.6-1.8-2.2-2.7-2.1-4.7-0.1-9.4 9.6-18.8 19.2-28.5 28.5-2.8 2.7-4.4 4.9-1.6 8.5 1.2 1.5 1.7 3.6 2.1 5.6 0.3 2 1.3 2.5 3.2 2.4 7.3-0.1 14.7 0 22 0zm0.1 10.5c-6.7 0-13.4 0.2-20.2-0.1-3.3-0.1-5.2 0.6-5.6 4.2-0.3 2-1.4 4.1-2.6 5.8-1.3 1.8-1 2.8 0.5 4.3q15.6 15.3 31 30.9c1.7 1.8 2.5 1.8 4-0.2 10-12.4 15.9-26.6 17.7-42.5 0.2-2.1-0.4-2.5-2.3-2.5-7.5 0.1-15 0.1-22.5 0.1zm-110.2-10.9c7.4 0 14.7-0.1 22.1 0 2 0.1 3.1-0.2 3.5-2.6 0.5-2.5 1.6-5 3-7.2 1.2-1.9 1-3-0.6-4.6-10.3-10.1-20.5-20.3-30.6-30.6-1.9-2-2.8-1.9-4.4 0.2-9.9 12.4-15.7 26.4-17.5 42.1-0.3 2.4 0.5 2.8 2.5 2.7 7.4-0.1 14.7 0 22 0zm60.4 52.5c0 5 0 10 0 15 0 0.9-0.5 2.1 0.7 2.7 4.7 2.6 6.9 7.4 9.7 11.6 0.9 1.4 1.6 1.6 3.3 1.3 11.8-2.8 22.3-8.2 31.8-15.8 1.7-1.4 1.7-2.1 0.1-3.6-10.6-10.4-21.1-20.9-31.6-31.3-1.2-1.3-2.1-1.7-3.7-0.6-2.4 1.6-5.1 2.7-7.9 3.2-2.1 0.3-2.5 1.4-2.5 3.3 0.2 4.8 0.1 9.5 0.1 14.2zm-10.5 0.4c0-4.2-0.3-8.5 0.1-12.7 0.3-3.4-0.7-5.1-4.3-5.6-2.1-0.3-4.2-1.5-6-2.8-1.8-1.1-2.7-0.7-4.1 0.6q-15.6 15.7-31.5 31.3c-1.6 1.6-1.4 2.3 0.3 3.6 8.9 7.2 18.9 12.2 29.9 15.4 3.1 1 4.7 0.2 6.2-2.5 1.2-2.3 2.3-5.2 4.4-6.4 6-3.6 5.1-9.1 5-14.5 0-2.1 0-4.3 0-6.4zm5.2 70.8q11.8 0 23.6 0c1.5 0 3.1 0.1 4-1.4 1-1.6 0.1-3-0.8-4.5-7.8-11.9-15.6-23.9-23.4-35.9-2.4-3.7-4.1-3.7-6.6 0.1-7.8 11.8-15.5 23.7-23.2 35.6-0.9 1.4-1.9 2.8-1 4.5 0.9 1.7 2.6 1.6 4.2 1.6q11.6 0 23.2 0zm-0.1-98.4c11.1 0 20.1-8.7 20.1-19.7 0-11.1-8.9-20.1-19.9-20.1-10.9 0-20.1 9.2-20.2 20 0 11.1 8.7 19.8 19.9 19.8z"/>
</svg>