<svg width="512" height="512" viewBox="0 0 512 512" fill="none" xmlns="http://www.w3.org/2000/svg">
<path d="M132.52 447.52C131.68 446.15 130.14 446.42 128.92 446.12C108.7 441.07 94.5302 423.48 94.4702 402.69C94.3602 357.94 94.3302 313.19 94.4902 268.44C94.5402 253.44 100.72 241.07 112.9 232.22C151.68 204.05 190.55 176 229.49 148.04C245.96 136.21 266.01 136.22 282.46 148.03C321.4 175.98 360.28 204.01 399.05 232.19C411.22 241.03 417.41 253.42 417.46 268.42C417.62 313.17 417.61 357.92 417.47 402.67C417.4 425.07 400.95 443.7 379.01 446.77C378.49 446.84 378.05 446.91 377.93 447.51H282.15C281.93 447.25 281.76 446.85 281.48 446.75C273.84 443.84 270.81 438.19 270.88 430.18C271.04 411.63 270.94 393.07 270.92 374.51C270.92 372.9 270.94 371.25 270.61 369.68C268.96 361.86 262.02 356.89 254.12 357.75C246.65 358.56 241.06 364.95 241.04 372.98C240.98 392.41 240.99 411.83 241.04 431.26C241.05 434.73 240.28 437.88 238.44 440.82C236.22 444.37 232.5 445.75 229.03 447.51C196.87 447.52 164.7 447.52 132.52 447.52ZM124.36 335.26C124.36 357.21 124.34 379.16 124.37 401.11C124.38 411.23 130.56 417.5 140.63 417.52C163.08 417.57 185.52 417.48 207.97 417.6C210.69 417.61 211.19 416.77 211.17 414.26C211.05 400.54 211.13 386.82 211.1 373.11C211.09 369.6 211.43 366.14 212.27 362.74C217.84 340.18 238.73 325.24 260.87 327.96C284.14 330.82 300.8 349.78 300.86 373.53C300.89 387.25 300.92 400.97 300.81 414.68C300.79 416.94 301.31 417.6 303.67 417.59C326.37 417.49 349.06 417.58 371.76 417.51C381.33 417.48 387.6 411.08 387.6 401.44C387.63 357.54 387.59 313.65 387.64 269.75C387.65 263.65 385.27 259 380.33 255.44C342.43 228.14 304.57 200.79 266.69 173.46C258.72 167.71 253.3 167.72 245.27 173.51C207.49 200.76 169.75 228.06 131.93 255.25C126.72 259 124.3 263.77 124.33 270.15C124.42 291.86 124.36 313.56 124.36 335.26Z" fill="#010101"/>
<path d="M64.4302 194.61C67.3302 188.98 72.5202 185.78 77.4402 182.25C127.85 146.13 178.24 109.98 228.64 73.85C245.97 61.43 265.92 61.33 283.19 73.7C335.33 111.04 387.44 148.42 439.55 185.8C448.99 192.57 450.21 202.41 442.6 209.88C437.1 215.27 430 215.75 423.26 210.96C408.25 200.27 393.29 189.5 378.32 178.76C341.08 152.05 303.85 125.34 266.61 98.63C258.83 93.05 253.25 93.03 245.48 98.59C193.76 135.66 142.05 172.74 90.3202 209.8C79.6202 217.46 71.3002 215.34 65.2202 203.52C65.0802 203.24 64.7002 203.07 64.4402 202.85C64.4302 200.1 64.4302 197.35 64.4302 194.61Z" fill="#010101"/>
</svg>
