<svg width="512" height="512" viewBox="0 0 512 512" fill="none" xmlns="http://www.w3.org/2000/svg">
<path d="M260.69 411.09H129.42C122.57 411.09 115.71 411.14 108.86 411.08C103.22 411.03 99.8099 408.02 99.8599 403.31C99.9099 398.67 103.43 395.76 109.04 395.7C115.1 395.64 115.1 395.64 115.1 389.69V192.16C115.1 183.46 117.47 181.11 126.21 181.11C146.91 181.11 167.61 181.06 188.31 181.17C191 181.18 192.01 180.68 191.89 177.73C191.64 171.5 191.89 165.26 191.79 159.03C191.73 155.22 193.38 152.66 196.73 150.99C216.66 141.05 236.58 131.1 256.48 121.11C259.39 119.65 262.17 119.69 265.06 121.13C284.85 131.05 304.64 140.96 324.46 150.83C328.1 152.64 329.79 155.36 329.69 159.47C329.54 165.33 329.84 171.2 329.58 177.05C329.44 180.24 330.16 181.24 333.59 181.21C354.16 181.02 374.74 181.11 395.31 181.12C404 181.12 406.36 183.49 406.36 192.24V390.15C406.36 395.71 406.36 395.71 411.74 395.72C412.24 395.72 412.74 395.71 413.24 395.72C418.22 395.87 421.59 398.97 421.61 403.39C421.62 407.84 418.37 410.93 413.29 411.09C408.43 411.24 403.57 411.35 398.71 411.29C373.15 411 347.6 411.08 322.04 411.28C301.6 411.44 281.16 411.31 260.71 411.31C260.69 411.22 260.69 411.15 260.69 411.09ZM207.04 279.35C207.04 316.88 207.08 354.4 206.96 391.93C206.95 395.1 207.83 395.86 210.89 395.78C218.74 395.56 226.6 395.59 234.45 395.77C237.06 395.83 237.79 395.14 237.75 392.5C237.6 381.16 237.65 369.81 237.7 358.47C237.73 352.2 240.63 349.33 246.88 349.3C255.86 349.27 264.83 349.28 273.81 349.29C281.08 349.3 283.78 351.96 283.79 359.17C283.81 370.39 283.86 381.61 283.74 392.83C283.72 395.08 284.24 395.81 286.61 395.77C294.96 395.62 303.32 395.61 311.66 395.77C314.13 395.82 314.47 394.88 314.47 392.73C314.42 317.06 314.42 241.39 314.48 165.72C314.48 163.69 313.88 162.6 312.06 161.7C295.68 153.6 279.33 145.44 263.01 137.22C261.4 136.41 260.19 136.37 258.55 137.2C242.23 145.44 225.88 153.61 209.48 161.69C207.44 162.7 206.98 163.97 207 166.05C207.09 175.77 207.04 185.49 207.04 195.2V279.35ZM329.64 295.74C329.64 327.9 329.67 360.06 329.58 392.22C329.57 394.9 330.07 395.81 332.99 395.78C351.19 395.63 369.38 395.63 387.58 395.78C390.43 395.8 391.02 395.02 391.01 392.28C390.93 328.21 390.92 264.14 391.03 200.08C391.04 196.96 390 196.51 387.27 196.53C369.32 196.64 351.37 196.67 333.43 196.51C330.3 196.48 329.56 197.29 329.57 200.39C329.69 232.17 329.64 263.95 329.64 295.74ZM130.51 295.8C130.51 327.96 130.55 360.12 130.45 392.28C130.44 395.02 131.02 395.81 133.88 395.78C152.08 395.63 170.27 395.63 188.47 395.78C191.38 395.8 191.88 394.91 191.88 392.22C191.8 328.15 191.8 264.08 191.89 200.02C191.89 197.24 191.24 196.49 188.42 196.52C170.35 196.66 152.28 196.69 134.2 196.5C130.93 196.47 130.44 197.49 130.45 200.45C130.55 232.23 130.51 264.01 130.51 295.8ZM253.14 379.94C253.14 381.19 253.08 382.44 253.15 383.68C253.38 387.61 251.4 393.14 253.92 395.05C256.56 397.05 261.78 395.54 265.87 395.74C267.87 395.84 268.41 395.15 268.36 393.21C268.24 387.73 268.41 382.24 268.29 376.76C268.2 372.82 270.06 367.28 267.54 365.36C264.92 363.36 259.68 364.86 255.59 364.66C253.57 364.56 253.05 365.33 253.1 367.24C253.22 371.47 253.14 375.71 253.14 379.94Z" fill="black"/>
<path d="M260.74 211.76C248.02 211.8 237.64 201.46 237.68 188.78C237.72 176.28 248 165.99 260.51 165.91C273.26 165.83 283.72 176.1 283.76 188.73C283.8 201.42 273.5 211.72 260.74 211.76ZM268.3 188.9C268.31 184.69 265.01 181.28 260.86 181.18C256.61 181.08 253.1 184.65 253.16 189C253.22 193.17 256.66 196.56 260.78 196.53C264.9 196.5 268.29 193.07 268.3 188.9ZM283.67 303.69C280.94 303.69 278.2 303.83 275.48 303.66C271.41 303.4 268.29 299.92 268.37 295.99C268.45 292.15 271.44 288.77 275.37 288.64C280.95 288.45 286.55 288.44 292.13 288.65C296.14 288.8 298.93 292.08 298.95 296.08C298.97 300.06 296.2 303.33 292.23 303.64C289.39 303.86 286.52 303.68 283.67 303.68V303.69ZM237.81 273.03C235.08 273.03 232.34 273.17 229.62 273C225.36 272.74 222.5 269.59 222.51 265.44C222.52 261.31 225.4 258.09 229.67 257.95C235.13 257.77 240.6 257.76 246.05 257.97C250 258.12 252.99 261.47 253.09 265.31C253.19 269.25 250.11 272.72 246.01 273C243.28 273.18 240.54 273.03 237.81 273.03ZM283.55 273.05C280.94 273.05 278.33 273.17 275.73 273.02C271.56 272.79 268.44 269.55 268.36 265.59C268.28 261.53 271.52 258.05 275.86 257.93C281.07 257.78 286.29 257.77 291.5 257.93C296.01 258.06 298.98 261.25 298.94 265.54C298.91 269.81 295.91 272.84 291.36 273.05C288.76 273.17 286.15 273.07 283.54 273.07C283.55 273.06 283.55 273.06 283.55 273.05ZM238.07 303.69C235.21 303.69 232.35 303.83 229.51 303.66C225.33 303.4 222.45 300.13 222.51 295.99C222.57 292.01 225.39 288.78 229.41 288.64C234.99 288.45 240.59 288.45 246.17 288.65C250.07 288.79 253.06 292.25 253.09 296.08C253.12 299.89 250.14 303.33 246.26 303.63C243.55 303.84 240.8 303.67 238.07 303.67V303.69ZM237.52 334.36C234.91 334.36 232.3 334.47 229.7 334.33C225.49 334.11 222.53 330.94 222.51 326.83C222.48 322.68 225.33 319.43 229.59 319.28C235.04 319.08 240.52 319.08 245.97 319.28C250.09 319.43 253.17 322.96 253.09 326.9C253.01 330.86 249.84 334.13 245.72 334.33C242.99 334.46 240.25 334.36 237.52 334.36ZM283.45 334.36C280.84 334.36 278.23 334.47 275.63 334.33C271.54 334.11 268.38 330.75 268.37 326.8C268.36 322.83 271.43 319.41 275.59 319.27C281.05 319.09 286.52 319.07 291.97 319.29C296.21 319.46 299.02 322.78 298.95 326.94C298.88 331.04 295.9 334.14 291.65 334.34C288.92 334.46 286.18 334.36 283.45 334.36ZM360.13 227.21C357.65 227.21 355.15 227.34 352.68 227.18C348.16 226.9 345.14 223.79 345.11 219.58C345.07 215.33 347.99 212.07 352.54 211.87C357.75 211.64 362.98 211.64 368.18 211.87C372.62 212.07 375.73 215.54 375.65 219.62C375.57 223.74 372.43 226.92 367.95 227.18C365.36 227.33 362.74 227.21 360.13 227.21ZM360.08 257.84C357.6 257.84 355.1 257.97 352.63 257.81C348.27 257.54 345.3 254.56 345.13 250.53C344.95 246.25 347.75 242.78 352.23 242.54C357.68 242.25 363.17 242.25 368.61 242.57C372.85 242.82 375.76 246.37 375.65 250.31C375.55 254.28 372.52 257.48 368.27 257.79C365.55 257.99 362.81 257.83 360.08 257.83V257.84ZM360.23 288.53C357.87 288.53 355.51 288.63 353.15 288.51C348.14 288.27 345.02 285.14 345.11 280.6C345.2 276.25 348.35 273.23 353.17 273.12C358.01 273.01 362.86 272.98 367.7 273.13C372.39 273.27 375.66 276.56 375.66 280.81C375.65 284.88 372.52 288.15 368.05 288.47C365.46 288.66 362.84 288.5 360.23 288.5V288.53ZM360.25 319.16C357.77 319.16 355.27 319.29 352.8 319.13C348.06 318.84 345.03 315.65 345.12 311.26C345.2 307.06 348.24 303.93 352.79 303.78C357.88 303.61 362.98 303.59 368.06 303.8C372.52 303.98 375.65 307.33 375.66 311.44C375.67 315.52 372.54 318.79 368.07 319.11C365.48 319.29 362.86 319.14 360.25 319.14V319.16ZM360.46 334.4C362.94 334.4 365.43 334.28 367.91 334.42C372.41 334.68 375.55 337.8 375.65 341.93C375.75 346.01 372.71 349.49 368.23 349.72C362.91 349.99 357.54 350.01 352.22 349.68C347.69 349.4 344.95 345.98 345.13 341.69C345.3 337.65 348.26 334.69 352.64 334.43C355.23 334.27 357.85 334.4 360.46 334.4ZM360.28 380.41C357.67 380.41 355.05 380.59 352.46 380.37C347.89 379.99 345.04 376.85 345.11 372.59C345.18 368.38 348.23 365.23 352.75 365.09C357.84 364.94 362.94 364.93 368.02 365.1C372.45 365.25 375.62 368.58 375.65 372.7C375.67 376.66 372.75 379.94 368.47 380.34C365.76 380.59 363.01 380.39 360.28 380.39V380.41ZM160.95 227.21C158.47 227.21 155.97 227.33 153.5 227.18C149.02 226.91 145.88 223.74 145.81 219.61C145.74 215.52 148.84 212.07 153.29 211.87C158.5 211.64 163.73 211.64 168.93 211.87C173.46 212.07 176.39 215.35 176.35 219.59C176.31 223.81 173.31 226.91 168.77 227.18C166.17 227.33 163.55 227.2 160.95 227.21ZM160.86 257.85C158.5 257.85 156.14 257.94 153.78 257.83C149.07 257.61 145.81 254.43 145.79 250.16C145.77 246.08 148.89 242.69 153.36 242.49C158.57 242.26 163.8 242.25 169 242.51C173.54 242.74 176.41 246.04 176.33 250.3C176.25 254.52 173.23 257.57 168.67 257.82C166.09 257.97 163.47 257.85 160.86 257.85ZM160.87 273.1C163.48 273.1 166.09 272.99 168.69 273.13C173.24 273.37 176.27 276.44 176.34 280.65C176.41 284.9 173.53 288.21 168.99 288.44C163.79 288.7 158.55 288.69 153.35 288.45C148.88 288.25 145.77 284.85 145.79 280.77C145.81 276.5 149.07 273.33 153.79 273.12C156.15 273.01 158.51 273.09 160.87 273.1ZM160.86 319.16C158.5 319.16 156.13 319.27 153.78 319.14C149.05 318.89 145.8 315.7 145.79 311.46C145.78 307.21 149.05 303.9 153.74 303.76C158.7 303.61 163.68 303.6 168.64 303.77C173.21 303.92 176.25 307.02 176.34 311.23C176.44 315.62 173.41 318.83 168.68 319.12C166.08 319.29 163.47 319.16 160.86 319.16ZM161.23 349.8C158.62 349.8 156 349.97 153.41 349.76C148.87 349.4 145.8 346.21 145.79 342.11C145.78 337.86 149.03 334.56 153.73 334.41C158.69 334.26 163.67 334.25 168.63 334.42C173.22 334.58 176.23 337.65 176.33 341.87C176.43 346.13 173.61 349.3 169.04 349.73C166.45 349.97 163.83 349.77 161.22 349.77C161.23 349.78 161.23 349.79 161.23 349.8ZM161.19 365.06C163.67 365.06 166.16 364.96 168.64 365.08C173.18 365.29 176.24 368.32 176.34 372.53C176.43 376.66 173.75 380.03 169.42 380.28C163.85 380.6 158.24 380.59 152.68 380.25C148.44 379.98 145.61 376.35 145.83 372.4C146.05 368.39 149.1 365.35 153.38 365.11C155.97 364.95 158.58 365.07 161.19 365.06Z" fill="black"/>
</svg>
