<svg width="512" height="512" viewBox="0 0 512 512" fill="none" xmlns="http://www.w3.org/2000/svg">
<path d="M218.21 357.21C218.21 340.62 218.17 324.04 218.26 307.45C218.27 305.17 217.77 304.46 215.35 304.45C203.12 304.38 196.49 297.61 196.48 285.4C196.47 260.4 196.43 235.4 196.49 210.4C196.52 198.08 203.41 189.1 214.91 186C217.5 185.3 220.14 185.33 222.78 185.33C244.66 185.31 266.54 185.63 288.41 185.21C304.18 184.91 315.1 196.32 314.86 211.81C314.48 236.32 314.77 260.85 314.76 285.37C314.75 297.58 308.11 304.43 295.92 304.44C293.05 304.44 293 305.61 293 307.81C293.05 340.26 293.05 372.72 293.03 405.17C293.02 415.21 287.61 422.31 278.99 423.75C268.81 425.45 259.6 418.11 259.29 407.8C259.06 400.47 259.22 393.14 259.22 385.81V316.58C259.22 315.62 259.28 314.65 259.16 313.7C258.89 311.56 257.49 310.5 255.45 310.57C253.59 310.64 252.28 311.67 252.09 313.67C251.99 314.74 252.04 315.83 252.04 316.91C252.04 346.6 252.06 376.29 252.03 405.98C252.02 415.76 246.32 422.58 237.27 423.86C228.77 425.06 220.58 419.37 218.8 410.92C218.38 408.94 218.25 406.87 218.24 404.84C218.2 388.94 218.21 373.07 218.21 357.21ZM285.15 311.82V218.77C285.15 217.69 285.13 216.6 285.2 215.53C285.33 213.25 286.69 211.96 288.85 211.82C291.06 211.68 292.47 213 292.88 215.15C293.1 216.31 293.05 217.54 293.05 218.74C293.06 240.62 293.06 262.5 293.06 284.38C293.06 287.75 293.03 291.11 293.08 294.48C293.09 295.32 292.67 296.28 294.19 296.64C300.77 298.22 306.86 293.54 306.87 286.59C306.91 261.1 306.92 235.62 306.87 210.13C306.85 200.17 300.54 193.34 290.64 193.25C267.32 193.04 244 193.04 220.68 193.25C210.76 193.34 204.46 200.14 204.44 210.1C204.39 235.59 204.41 261.07 204.43 286.56C204.44 292.86 208.2 296.3 214.51 296.69C217.89 296.9 218.31 295.69 218.3 292.72C218.18 268.08 218.23 243.43 218.23 218.79C218.23 217.71 218.16 216.61 218.3 215.55C218.62 213.23 219.97 211.71 222.36 211.82C224.71 211.93 226.03 213.42 226.1 215.85C226.13 216.93 226.12 218.01 226.12 219.1V404.11C226.12 405.43 226.02 406.77 226.21 408.07C226.73 411.69 228.81 414.22 232.14 415.61C235.49 417 238.56 416.07 241.15 413.77C243.54 411.65 244.2 408.83 244.19 405.65C244.12 381.25 244.15 356.84 244.15 332.44C244.15 326.31 244.07 320.18 244.18 314.05C244.29 308.41 247.7 304.16 252.76 303.02C260.81 301.2 267.11 306.43 267.12 315.09C267.16 344.78 267.13 374.48 267.14 404.17C267.14 405.49 267.09 406.82 267.21 408.13C267.53 411.71 270.21 414.8 273.81 415.84C277.23 416.83 280.79 415.57 283.09 412.68C284.85 410.47 285.19 407.96 285.19 405.24C285.13 374.09 285.14 342.96 285.15 311.82ZM255.54 176.32C235.6 176.27 218.97 159.55 219.19 139.79C219.41 119.98 235.78 103.62 255.51 103.49C275.26 103.36 291.97 120.05 292.01 139.93C292.04 159.86 275.49 176.38 255.54 176.32ZM255.21 168.42C270.8 168.81 283.83 156.08 284.12 140.18C284.4 124.81 271.95 111.72 256.02 111.5C240.56 111.29 227.65 122.84 227.1 139.73C226.6 155.06 239.43 168.02 255.21 168.42Z" fill="black"/>
</svg>
