<svg width="512" height="512" viewBox="0 0 512 512" fill="none" xmlns="http://www.w3.org/2000/svg">
<path d="M56.3999 435.33C58.9099 429.59 58.8799 423.29 60.3199 417.32C60.8199 415.26 60.9499 413.11 61.4499 411.05C62.3499 407.32 65.0499 405.34 68.2999 405.82C71.5499 406.31 73.6599 409.01 73.1799 412.84C72.5199 418.08 71.4599 423.28 70.5599 428.55C72.0799 429.03 72.9999 428.11 73.9899 427.66C100.24 415.9 126.47 404.1 152.72 392.33C154.41 391.57 155.97 391.13 156.15 388.64C157.93 363.98 159.87 339.32 161.74 314.67C161.83 313.49 161.75 312.29 161.75 311.04C160.15 310.84 159.04 311.98 157.82 312.63C134.58 324.86 111.41 337.2 88.1199 349.34C85.3099 350.81 84.1299 352.7 83.6299 355.62C81.8099 366.22 79.8699 376.8 77.9499 387.38C77.1099 392.02 74.5699 394.33 70.9199 393.82C67.1199 393.29 65.2199 390.1 66.0999 385.28C72.5499 349.61 79.0499 313.96 85.5299 278.3C86.4599 273.21 87.4599 268.12 88.2699 263.01C88.7499 260.01 90.2299 257.96 92.8799 256.49C119.09 241.94 145.28 227.36 171.46 212.75C174.01 211.33 176.42 211.26 179 212.65C183.18 214.9 187.43 217.04 192.56 219.69C189.45 213.08 186.56 207.37 184.35 201.37C176.04 178.82 173.85 156.02 183.28 133.36C195.19 104.76 216.59 87.1999 247.21 81.7399C286 74.8199 322.57 96.39 337.58 130.02C346.66 150.35 346.87 171.17 340.8 192.29C338.23 201.24 334.69 209.79 330 218.47C333.63 217.75 336.48 216.04 339.1 214.27C344.08 210.91 348.32 211.65 353.4 214.54C377.95 228.52 402.7 242.16 427.43 255.82C430.86 257.71 432.8 260.11 433.33 264.1C434.13 270.15 435.53 276.11 436.5 282.14C437.15 286.21 435.29 289.03 431.86 289.71C428.5 290.37 425.76 288.39 424.86 284.29C423.78 279.37 422.94 274.39 422.02 269.43C421.36 265.92 415.5 261.63 412.06 262.39C395.38 266.08 378.72 269.85 361.31 273.76C387.05 303.67 412.48 333.21 437.9 362.75C438.21 362.64 438.52 362.53 438.84 362.41C437.92 357.06 437.04 351.69 436.07 346.35C433.86 334.2 431.6 322.06 429.38 309.92C428.57 305.51 430.41 302.34 434.11 301.67C437.61 301.03 440.33 303.17 441.14 307.55C445.14 329.22 449.08 350.91 453.01 372.59C456.87 393.88 460.66 415.19 464.59 436.47C465.13 439.41 465.29 442.06 462.8 444.11C460.29 446.17 457.73 445.51 454.99 444.28C424.42 430.5 393.8 416.82 363.24 403.02C360.85 401.94 358.98 401.89 356.56 402.99C326.37 416.66 296.11 430.14 265.93 443.84C262.2 445.53 259.1 445.48 255.4 443.8C225.34 430.17 195.2 416.73 165.13 403.13C162.63 402 160.66 401.88 158.09 403.05C127.91 416.73 97.6599 430.27 67.4299 443.83C61.7599 446.38 60.2199 446.07 56.3799 441.73C56.3999 439.59 56.3999 437.46 56.3999 435.33ZM228.48 267.39C228.42 267.49 228.36 267.6 228.29 267.69C228.26 267.73 228.2 267.74 228.15 267.77C228.27 267.66 228.39 267.54 228.5 267.43C220.43 259.87 213.96 250.96 207.23 242.26C206.16 240.88 205.04 239.71 203.43 238.89C196.82 235.53 190.22 232.14 183.72 228.59C181.28 227.26 180.39 227.41 180.21 230.43C179.64 239.84 178.94 249.24 178.09 258.63C177.88 260.92 178.76 261.2 180.65 261.46C193.13 263.19 205.58 265.16 218.08 266.79C221.48 267.23 224.92 268.78 228.48 267.39ZM332.93 162.37C332.82 159.75 332.6 154.56 331.47 149.49C321.07 102.67 270.45 78.5099 227.95 100.74C202.66 113.97 189.79 135.89 189.33 164.42C189.04 182.34 195.11 198.82 203.68 214.35C217.85 240.04 237.38 261.29 259.12 280.67C260.89 282.25 261.8 281.8 263.3 280.47C282.48 263.46 299.82 244.83 313.46 223.02C324.58 205.25 332.57 186.34 332.93 162.37ZM266.76 349.67C266.76 360.83 266.82 372 266.71 383.16C266.69 385.48 267.39 387.13 269 388.77C277.38 397.3 285.7 405.89 293.91 414.59C295.62 416.4 296.84 416.77 299.24 415.67C316.22 407.9 333.27 400.3 350.35 392.75C352.55 391.78 353.59 390.78 353.36 388.11C351.4 364.41 349.58 340.7 347.81 316.99C347.68 315.24 346.73 314.46 345.57 313.56C336.76 306.72 327.91 299.92 319.22 292.94C317.35 291.44 315.94 291.45 313.89 292.36C299.23 298.83 284.54 305.24 269.8 311.51C267.49 312.49 266.66 313.65 266.7 316.17C266.84 327.34 266.76 338.51 266.76 349.67ZM253.76 418L254.72 417.76C254.72 410.23 254.61 402.7 254.77 395.18C254.84 391.99 254.08 389.33 252.35 386.62C235.42 360.13 218.6 333.57 201.74 307.04C200.16 304.55 199.17 302.04 200.94 299.27C202.69 296.52 205.38 296.21 208.31 296.59C213.44 297.26 218.58 297.91 223.72 298.53C233.08 299.67 242.44 300.75 251.79 301.96C253.99 302.24 254.63 301.71 254.82 299.36C255.18 294.77 253.77 291.65 250.22 288.41C245.35 283.95 240.23 281.43 233.67 281.13C229.32 280.93 225 279.94 220.66 279.31C207 277.34 193.33 275.38 179.67 273.38C177.78 273.1 176.88 273.32 176.77 275.66C176.46 282.16 175.88 288.65 175.25 295.13C175.02 297.52 175.64 299.43 176.95 301.42C194.44 327.87 211.87 354.36 229.31 380.85C237.48 393.22 245.62 405.61 253.76 418ZM243.26 425.06C243.4 424.87 243.55 424.69 243.69 424.5C220.51 389.29 197.34 354.07 173.94 318.52C173.65 319.46 173.45 319.83 173.42 320.22C171.63 343.15 169.89 366.08 168.02 389C167.82 391.4 169.21 391.85 170.81 392.57C184.97 398.89 199.12 405.24 213.26 411.59C223.27 416.07 233.26 420.57 243.26 425.06ZM168.47 228.16C149.24 238.87 131.13 249.67 112.34 259.1C103.03 263.77 97.6899 269.44 97.2099 280.07C96.9099 286.65 95.0699 293.16 93.8999 299.77C94.5299 299.77 94.6799 299.82 94.7899 299.76C117.89 287.62 140.98 275.47 164.09 263.36C165.28 262.73 165.81 262.01 165.91 260.64C166.7 250.07 167.56 239.5 168.47 228.16ZM361.23 330.89C361.23 332.63 361.18 333.39 361.24 334.15C362.61 352.3 364.04 370.45 365.3 388.61C365.47 391.07 366.98 391.57 368.69 392.34C389.72 401.78 410.73 411.26 431.77 420.67C432.88 421.17 433.96 422.34 436.03 421.17C411.24 391.26 386.56 361.46 361.23 330.89ZM447.72 416.39C448.05 416.3 448.38 416.21 448.7 416.13C447.3 408.48 445.83 400.83 444.52 393.16C444 390.13 443.41 387.37 441.24 384.86C418.18 358.25 395.25 331.53 372.27 304.85C368.11 300.02 363.94 295.19 359.77 290.37C359.25 289.77 358.71 289.04 357.79 289.41C357 289.72 357.2 290.56 357.35 291.13C358.64 295.9 358.64 300.8 358.89 305.67C359.03 308.3 359.77 310.43 361.5 312.51C379.03 333.53 396.46 354.62 413.93 375.69C425.19 389.25 436.46 402.82 447.72 416.39ZM346.39 298.95C345.15 282.6 343.95 267.38 342.88 252.16C342.63 248.67 340.86 250.37 339.48 250.97C327.83 256.04 316.32 261.48 304.52 266.16C293.75 270.43 284.07 275.99 276.39 284.81C274.49 286.99 272.21 288.96 269.8 290.56C266.25 292.91 266.43 295.94 267.17 299.63C282.65 292.9 297.86 286.41 312.93 279.64C316.98 277.82 320.04 278.2 323.45 281.01C330.69 286.95 338.19 292.57 346.39 298.95ZM87.3599 335.7C88.0699 335.6 88.5099 335.65 88.8299 335.48C113.07 322.7 137.3 309.9 161.53 297.08C162.3 296.67 163.23 296.39 163.31 295.19C163.7 289.22 164.15 283.25 164.59 277.17C163.8 277.27 163.51 277.23 163.29 277.34C139.86 289.67 116.43 302.01 93.0099 314.36C92.0999 314.84 90.9999 315.16 90.7799 316.42C89.6499 322.81 88.5199 329.18 87.3599 335.7ZM217.79 309.9C230.06 329.24 241.98 348.01 253.89 366.77C254.71 349.68 254.71 332.86 254.72 316.05C254.72 314.79 254.24 314.18 252.89 314.02C241.44 312.72 230.01 311.34 217.79 309.9ZM397.93 253.19C390.26 248.93 383.33 245.09 376.41 241.22C375.55 240.74 374.74 240.51 373.77 240.74C367.968 242.113 362.161 243.467 356.35 244.8C354.82 245.15 354.23 245.85 354.44 247.58C354.94 251.8 355.32 256.04 355.47 260.28C355.55 262.48 356.44 262.55 358.16 262.15C363.06 261.01 367.99 259.97 372.9 258.87C380.98 257.05 389.06 255.2 397.93 253.19ZM340.46 227.05C329.06 234.16 314.89 236.87 309.05 251.2C319.51 246.59 329.74 242.05 340.01 237.6C341.25 237.06 341.55 236.35 341.43 235.18C341.17 232.71 341.5 230.18 340.46 227.05ZM266.76 405.94C266.76 412.45 266.79 420.12 266.74 427.79C266.73 429.8 267.36 429.96 269.08 429.15C274.08 426.8 279.17 424.61 284.38 422.29C283.88 421.62 283.56 421.02 283.09 420.6C277.52 415.57 271.93 410.58 266.76 405.94ZM358.77 231.4C356.99 230.43 355.3 229.5 353.53 228.52C352.94 230.17 353.23 231.54 353.57 233.03C355.32 232.58 357.22 232.88 358.77 231.4Z" fill="black"/>
<path d="M228.5 267.42C228.38 267.53 228.26 267.65 228.15 267.76C228.2 267.74 228.26 267.72 228.29 267.68C228.36 267.59 228.42 267.48 228.48 267.38C228.48 267.39 228.5 267.42 228.5 267.42Z" fill="black"/>
<path d="M298.19 163.77C298.13 182.22 283.66 198.63 267 200.84C245.7 203.67 228.75 189.81 224.97 172.11C222.34 159.8 225.48 148.7 233.92 139.23C236.55 136.28 240.1 135.79 242.7 137.95C245.38 140.18 245.72 143.62 243.07 146.78C236.94 154.11 234.42 162.18 237.28 171.56C240.71 182.79 252.05 190.54 263.08 189.19C276.37 187.57 285.57 177.9 286.16 164.95C286.68 153.48 278.29 142.64 266.74 139.99C264.68 139.52 262.52 139.48 260.43 139.1C257.05 138.48 254.87 135.74 255.18 132.66C255.5 129.52 258.06 127.34 261.52 127.26C278.78 126.87 295.64 141.63 297.56 158.8C297.78 160.64 298.03 162.48 298.19 163.77Z" fill="black"/>
</svg>
