<svg width="512" height="512" viewBox="0 0 512 512" fill="none" xmlns="http://www.w3.org/2000/svg">
<path d="M69.1699 149.97C70.3799 149.5 70.0499 148.27 70.2999 147.41C74.9499 131.37 87.9799 121.31 104.68 120.93C105.05 120.92 105.43 120.92 105.8 120.92C209.05 120.92 312.3 120.91 415.55 120.93C433.07 120.93 446.71 131.15 451.07 147.32C456.72 168.27 441.79 189.53 420.18 191.28C418.19 191.44 416.2 191.54 414.2 191.54C311.82 191.55 209.44 191.56 107.06 191.55C89.4499 191.55 76.0599 182.54 70.9299 167.38C70.3999 165.8 70.5199 163.96 69.1499 162.69C69.1699 158.45 69.1699 154.21 69.1699 149.97ZM69.1699 366.22C70.3099 365.89 70.0099 364.79 70.2299 364.04C75.0299 347.89 86.8799 338.44 103.7 337.43C104.94 337.36 106.19 337.36 107.44 337.36C209.69 337.36 311.95 337.39 414.2 337.32C429.51 337.31 441.43 343.1 448.47 356.92C460.22 380 444.03 406.69 417.8 407.94C416.31 408.01 414.81 407.99 413.31 407.99H108.42C87.6199 407.99 76.1099 399.53 69.8599 379.69C69.7699 379.4 69.3999 379.19 69.1599 378.94C69.1699 374.71 69.1699 370.47 69.1699 366.22Z" fill="#020202"/>
<path d="M69.1699 257.72C70.3999 257.32 70.1799 256.09 70.4299 255.24C75.2799 239.03 88.2999 229.26 105.46 229.24C158.96 229.2 212.46 229.23 265.96 229.23C315.97 229.23 365.98 229.19 415.99 229.25C437.31 229.27 453.13 245.55 452.24 266.33C451.47 284.16 436.42 299.09 418.62 299.64C416.88 299.69 415.13 299.69 413.38 299.69H108.46C87.7399 299.69 76.6499 291.77 70.0199 272.24C69.8599 271.76 69.7599 271.29 69.1699 271.19V257.72Z" fill="black"/>
</svg>
