<svg width="512" height="512" viewBox="0 0 512 512" fill="none" xmlns="http://www.w3.org/2000/svg">
<path d="M138.96 304.15C161.665 304.15 180.07 285.744 180.07 263.04C180.07 240.336 161.665 221.93 138.96 221.93C116.256 221.93 97.8501 240.336 97.8501 263.04C97.8501 285.744 116.256 304.15 138.96 304.15Z" fill="black"/>
<path d="M261.37 304.15C284.075 304.15 302.48 285.744 302.48 263.04C302.48 240.336 284.075 221.93 261.37 221.93C238.666 221.93 220.26 240.336 220.26 263.04C220.26 285.744 238.666 304.15 261.37 304.15Z" fill="black"/>
<path d="M383.38 304.15C406.084 304.15 424.49 285.744 424.49 263.04C424.49 240.336 406.084 221.93 383.38 221.93C360.676 221.93 342.27 240.336 342.27 263.04C342.27 285.744 360.676 304.15 383.38 304.15Z" fill="black"/>
</svg>
