<svg width="512" height="512" viewBox="0 0 512 512" fill="none" xmlns="http://www.w3.org/2000/svg">
<path d="M69.3301 271.34V239.91C70.3301 239.6 70.0301 238.73 70.1001 238.05C70.9001 230.25 72.1101 222.51 73.7201 214.83C89.8501 138.15 154.98 77.2101 232.56 66.1501C236.77 65.5501 241.14 65.8001 245.17 64.0701H275.1C275.42 65.0901 276.29 64.7301 276.97 64.7801C283.69 65.2601 290.36 66.1401 296.95 67.4701C344.83 77.1201 383.93 101.22 413.41 140.08C445.16 181.94 457.4 229.42 450.64 281.46C445.68 319.63 430.33 353.52 404.46 382.03C359.08 432.05 302.35 453.36 235.3 445.35C197.1 440.79 163.45 424.95 134.63 399.41C99.8001 368.53 78.6601 330.02 71.4201 283.94C70.7601 279.75 71.0701 275.37 69.3301 271.34ZM260.99 96.0701C173.1 95.9001 101.73 167.09 101.33 255.33C100.93 343.22 172.54 415.01 260.77 415.19C348.66 415.36 420.03 344.18 420.43 255.92C420.83 168 349.26 96.2401 260.99 96.0701Z" fill="#010101"/>
<path d="M243.94 214.57C240.13 218.61 236.53 222.87 232.48 226.65C226.64 232.11 218.09 232.2 211.96 227.28C205.96 222.47 204.17 214.16 207.79 207.43C208.54 206.03 209.53 204.68 210.66 203.55C223.58 190.56 236.44 177.5 249.54 164.69C258.51 155.92 272.7 159.61 276.15 171.39C276.53 172.69 276.73 174.08 276.73 175.43C276.76 228.9 276.79 282.38 276.72 335.85C276.71 342.89 272.15 348.63 265.65 350.64C259.05 352.68 252.17 350.41 248.03 344.87C245.6 341.62 244.95 337.93 244.96 333.96C245.01 314.02 244.98 294.07 244.98 274.13V215.42C244.63 215.14 244.28 214.86 243.94 214.57Z" fill="#010101"/>
</svg>
