<svg width="512" height="512" viewBox="0 0 512 512" fill="none" xmlns="http://www.w3.org/2000/svg">
<path d="M155.04 244.99C155.04 197.71 155.03 150.42 155.04 103.14C155.04 88.1101 167.16 76.0701 182.33 76.0701C227.28 76.0501 272.23 76.0601 317.18 76.0801C318.79 76.0801 320.53 75.5701 321.97 76.8301C321.96 99.3001 322.41 121.77 321.78 144.22C321.32 160.57 335.13 173.46 350.57 173.14C373.02 172.68 395.49 173.02 417.96 173.02C419.56 174.52 418.89 176.47 418.9 178.22C418.93 254.33 418.94 330.45 418.92 406.56C418.92 423.83 406.67 435.93 389.29 435.93C320.68 435.93 252.06 435.76 183.45 436.06C167.54 436.13 153.96 422.69 154.97 407.44C155.38 401.3 155.04 395.12 155.04 388.96C157.03 388.88 159.02 388.73 161.02 388.73C208.83 388.72 256.63 388.72 304.44 388.72C317.28 388.72 321.76 384.18 321.76 371.19C321.76 334.87 321.77 298.56 321.76 262.24C321.76 249.92 317.12 245.23 304.94 245.23C256.97 245.22 208.99 245.23 161.02 245.22C159.03 245.22 157.04 245.07 155.04 244.99Z" fill="#E9E9E3"/>
<path d="M155.04 244.99C157.03 245.07 159.02 245.22 161.02 245.22C208.99 245.23 256.97 245.23 304.94 245.23C317.12 245.23 321.76 249.92 321.76 262.24C321.77 298.56 321.76 334.87 321.76 371.19C321.76 384.18 317.28 388.72 304.44 388.72C256.63 388.72 208.83 388.72 161.02 388.73C159.03 388.73 157.04 388.88 155.04 388.96C139.92 388.88 124.79 388.8 109.67 388.73C98.1702 388.68 93.2902 383.85 93.2902 372.34C93.2802 335.42 93.2802 298.51 93.2902 261.59C93.2902 250.07 98.1502 245.26 109.67 245.21C124.79 245.16 139.92 245.07 155.04 244.99ZM181.69 316.98V341.94C181.69 343.95 181.37 346.04 184.55 345.91C193.18 345.55 201.84 346.57 210.44 345C225.37 342.27 235.24 331.18 235.24 316.94C235.24 302.7 225.41 291.65 210.42 288.93C201.82 287.37 193.16 288.4 184.53 288.04C181.34 287.91 181.69 290.03 181.69 292.02V316.98ZM121.33 316.53V336.98C121.33 346.48 121.32 346.36 130.67 345.98C133.42 345.87 134.03 344.82 133.95 342.39C133.82 338.4 134.04 334.4 133.87 330.42C133.76 327.8 134.71 326.92 137.31 327.02C141.46 327.17 145.63 327.19 149.78 326.94C161.89 326.2 169.99 317.08 169.03 305.48C168.23 295.83 159.77 288.51 148.53 288.14C140.72 287.88 132.9 288.22 125.09 287.98C121.81 287.88 121.23 289.22 121.28 292.08C121.43 300.23 121.34 308.38 121.33 316.53ZM249.09 316.65V337.14C249.09 346.59 249.08 346.5 258.61 345.96C261 345.82 261.95 345.06 261.76 342.73C261.67 341.57 261.68 340.4 261.76 339.23C262.09 333.97 259.47 327.02 262.79 323.89C266.07 320.8 272.94 323.21 278.23 322.99C280.06 322.91 281.89 322.98 283.73 322.98C290.96 322.98 290.79 322.98 290.78 315.69C290.78 312.54 289.69 311.71 286.72 311.81C281.06 312.01 275.39 311.95 269.73 311.85C260.64 311.68 262.02 313.7 261.67 303.55C261.55 299.95 262.84 299.04 266.24 299.13C274.23 299.35 282.23 299.05 290.22 299.25C295.32 299.38 293.54 295.75 293.65 293.36C293.76 290.98 294.88 287.9 290.22 287.98C277.73 288.19 265.23 288.12 252.74 288C249.94 287.97 248.97 288.79 249.02 291.66C249.19 299.99 249.09 308.32 249.09 316.65Z" fill="#F14848"/>
<path d="M417.96 173.03C395.5 173.03 373.03 172.68 350.57 173.15C335.13 173.47 321.32 160.58 321.78 144.23C322.41 121.78 321.96 99.3001 321.97 76.8401C323.32 78.0601 324.73 79.2201 326.01 80.5101C355.49 109.97 384.96 139.45 414.42 168.94C415.69 170.2 416.78 171.66 417.96 173.03Z" fill="#B9B9B8"/>
<path d="M181.69 316.98V292.02C181.69 290.03 181.35 287.91 184.53 288.04C193.16 288.4 201.82 287.37 210.42 288.93C225.4 291.65 235.24 302.7 235.24 316.94C235.24 331.17 225.37 342.27 210.44 345C201.84 346.57 193.18 345.55 184.55 345.91C181.37 346.04 181.69 343.95 181.69 341.94V316.98ZM193.98 317.03C193.98 321.85 194.01 326.67 193.96 331.48C193.94 333.32 194.1 334.8 196.54 334.68C200.51 334.49 204.5 334.99 208.45 334.14C216.6 332.38 222.49 325.38 222.62 317.15C222.75 308.84 216.71 301.54 208.34 299.75C204.87 299 201.38 299.52 197.92 299.23C194.95 298.98 193.73 299.91 193.9 303.08C194.16 307.72 193.98 312.38 193.98 317.03Z" fill="#FEF8EA"/>
<path d="M121.34 316.53C121.34 308.38 121.43 300.23 121.29 292.09C121.24 289.23 121.82 287.89 125.1 287.99C132.91 288.23 140.73 287.89 148.54 288.15C159.78 288.52 168.23 295.84 169.04 305.49C170 317.09 161.9 326.21 149.79 326.95C145.65 327.2 141.47 327.18 137.32 327.03C134.72 326.93 133.77 327.81 133.88 330.43C134.05 334.41 133.82 338.41 133.96 342.4C134.04 344.84 133.43 345.88 130.68 345.99C121.34 346.37 121.34 346.49 121.34 336.99C121.33 330.16 121.33 323.34 121.34 316.53ZM133.94 307.5V313.49C133.94 314.78 134.28 315.86 135.84 315.81C140.64 315.65 145.5 316.5 150.23 315.06C154.21 313.86 156.43 311.31 156.16 306.99C155.9 302.83 153.2 300.78 149.51 300.01C147.09 299.5 144.56 299.41 142.07 299.37C133.93 299.26 133.93 299.3 133.94 307.5ZM249.09 316.65C249.09 308.32 249.2 299.99 249.03 291.66C248.97 288.78 249.95 287.97 252.75 288C265.24 288.12 277.74 288.19 290.23 287.98C294.89 287.9 293.76 290.98 293.66 293.36C293.55 295.76 295.33 299.38 290.23 299.25C282.24 299.05 274.24 299.35 266.25 299.13C262.85 299.04 261.56 299.95 261.68 303.55C262.03 313.69 260.64 311.67 269.74 311.85C275.4 311.96 281.07 312.01 286.73 311.81C289.7 311.71 290.79 312.54 290.79 315.69C290.79 322.98 290.96 322.98 283.74 322.98C281.91 322.98 280.07 322.92 278.24 322.99C272.95 323.21 266.07 320.8 262.8 323.89C259.48 327.02 262.1 333.96 261.77 339.23C261.7 340.39 261.68 341.57 261.77 342.73C261.96 345.07 261.01 345.83 258.62 345.96C249.1 346.5 249.1 346.59 249.1 337.14C249.09 330.31 249.09 323.48 249.09 316.65Z" fill="#FEF5E8"/>
<path d="M193.98 317.03C193.98 312.38 194.16 307.72 193.92 303.08C193.75 299.91 194.97 298.98 197.94 299.23C201.4 299.52 204.89 299.01 208.36 299.75C216.73 301.55 222.78 308.84 222.64 317.15C222.51 325.38 216.61 332.37 208.47 334.14C204.51 335 200.52 334.49 196.56 334.68C194.12 334.8 193.96 333.32 193.98 331.48C194.01 326.67 193.98 321.85 193.98 317.03ZM133.94 307.5C133.93 299.3 133.93 299.26 142.07 299.38C144.56 299.42 147.09 299.51 149.51 300.02C153.21 300.79 155.9 302.84 156.16 307C156.43 311.32 154.2 313.87 150.23 315.07C145.5 316.5 140.64 315.66 135.84 315.82C134.28 315.87 133.94 314.79 133.94 313.5V307.5Z" fill="#F14848"/>
</svg>
