<svg width="512" height="512" viewBox="0 0 512 512" fill="none" xmlns="http://www.w3.org/2000/svg">
<path d="M348.16 454.53C344.03 452.72 339.51 452.86 335.19 452.03C314.4 448.02 294.89 440.34 275.99 431.09C244.24 415.55 214.95 396.19 188.27 373C161.28 349.54 137.78 322.9 117.21 293.65C98.33 266.8 83.05 238.09 72.5 206.95C66.88 190.36 63.32 173.41 63.8 155.77C64.25 139.2 69.65 124.61 81.34 112.69C91.96 101.86 102.53 90.9599 113.64 80.6599C130.29 65.2099 151.75 65.1899 168.47 81.4699C185.98 98.5199 203.59 115.51 220.04 133.59C233.64 148.54 233.47 167.99 220.16 183.29C211.1 193.7 201.17 203.28 191.06 212.66C188.92 214.65 188.39 216.02 189.77 218.91C199.76 239.74 214.2 257.31 229.78 274.01C245.65 291.03 263.13 306.22 282.79 318.75C288.26 322.24 294.18 325 299.79 328.28C301.73 329.42 302.48 328.2 303.51 327.16C312.02 318.65 320.5 310.11 329.05 301.64C335.64 295.1 343.01 289.84 352.45 288.28C365.04 286.2 375.8 290.19 384.69 298.91C401.61 315.5 418.43 332.19 434.98 349.15C451.05 365.61 452.03 385.52 436.96 403.01C425.61 416.18 413.2 428.49 400.37 440.25C391.38 448.49 380.26 452.71 368.06 453.82C367.54 453.87 367.09 453.94 366.95 454.54C360.7 454.53 354.43 454.53 348.16 454.53ZM358.5 435.11C370.26 435.4 381.05 432.36 389.55 424.12C400.8 413.23 411.72 401.97 422.32 390.45C430.11 381.98 430.04 372.46 422.04 364.23C405.09 346.79 387.84 329.64 370.47 312.61C363.86 306.13 355.47 305.96 347.87 311.36C345.84 312.8 344.01 314.56 342.24 316.32C332.9 325.6 323.64 334.95 314.28 344.21C308.06 350.37 301.45 351.43 293.75 347.48C288.3 344.69 282.84 341.88 277.59 338.73C253.75 324.46 232.96 306.47 214.15 286.13C196.83 267.4 181.06 247.56 170.56 224C166.13 214.04 167.07 208.29 175.13 200.85C184.53 192.17 193.54 183.09 202.45 173.92C213.02 163.05 212.96 154.3 202.51 143.3C202.42 143.21 202.33 143.12 202.25 143.03C186.74 127.51 171.24 111.99 155.7 96.4899C153.21 94.0099 150.56 91.7099 147.26 90.3399C138.19 86.5999 131.19 90.4999 124.96 96.6299C115.66 105.77 106.46 115.01 97.3 124.29C92.62 129.04 88.63 134.29 86.33 140.69C81.8 153.32 82.73 166.15 85.3 178.87C90.39 204.11 100.42 227.54 112.91 249.89C135.67 290.61 164.79 326.32 199.77 357.14C230.51 384.23 264.78 405.89 302.61 421.77C320.5 429.29 338.97 434.49 358.5 435.11Z" fill="black"/>
</svg>
