<svg width="512" height="512" viewBox="0 0 512 512" fill="none" xmlns="http://www.w3.org/2000/svg">
<path d="M235.49 454.27C234.74 452.81 233.37 453.54 232.31 453.47C200.79 451.45 169.72 446.95 139.72 436.68C123.95 431.28 108.86 424.51 96.1901 413.28C89.8101 407.63 84.8401 400.96 82.3601 392.72C77.7501 377.39 82.9701 364.73 93.7401 354.01C106.67 341.13 123 334.04 139.91 328.23C155.87 322.75 172.25 318.8 188.94 316.24C191.99 315.77 191.59 314.88 190.27 312.82C176.48 291.38 162.66 269.97 149.05 248.42C132.49 222.2 125.32 193.43 129.64 162.79C137.17 109.26 166.73 72.3899 217.33 53.1199C238.21 45.1699 260.11 43.4099 282.07 47.6899C334.22 57.8599 369.21 88.6399 385.64 138.79C398.27 177.33 392.72 214.63 370.96 249.13C357.58 270.35 343.98 291.43 330.38 312.52C328.81 314.95 328.57 315.72 331.95 316.31C357.64 320.76 382.88 326.85 406.12 339.22C417.61 345.34 428.16 352.71 434.74 364.4C442.42 378.03 441.38 391.39 432.53 404.09C425.18 414.64 414.66 421.41 403.45 427.1C380.6 438.68 356.02 444.61 330.91 448.7C315.68 451.18 300.36 452.82 284.94 453.51C284.3 453.54 283.58 453.4 283.37 454.28C267.41 454.27 251.45 454.27 235.49 454.27ZM260.18 378.05C261.18 376.56 261.85 375.6 262.48 374.61C279.82 347.42 297.16 320.23 314.51 293.04C327.29 273.02 340.86 253.45 352.71 232.89C373.9 196.12 373.63 158.54 352.1 122.07C333.94 91.3199 306.21 73.6099 270.59 70.3599C230.07 66.6599 197.41 82.0899 173.06 114.62C147.35 148.96 145.72 198.95 168.79 234.98C184.82 260.01 200.88 285.03 216.89 310.08C231.23 332.54 245.53 355.05 260.18 378.05ZM259.72 429.53C268.49 429.53 277.28 429.9 286.02 429.46C315.44 428.01 344.4 423.69 372.4 414.23C385.24 409.89 397.73 404.66 408.12 395.55C418.19 386.72 418.31 378.95 408.47 369.76C401.08 362.86 392.2 358.38 382.98 354.54C361.62 345.64 339.13 341.25 316.36 338.02C314.17 337.71 313.61 338.92 312.75 340.27C308.34 347.22 303.89 354.14 299.47 361.08C290.06 375.85 280.62 390.61 271.26 405.42C268.13 410.37 263.96 413.02 257.95 412.04C253.64 411.33 251.09 408.39 248.88 404.92C235.29 383.52 221.63 362.17 208.09 340.75C206.71 338.56 205.49 337.84 202.72 338.27C194.32 339.57 185.92 340.82 177.61 342.57C159.12 346.46 141.06 351.63 124.43 360.89C118.48 364.2 112.92 368.05 108.55 373.38C103.38 379.68 103.44 385.43 108.59 391.69C111.14 394.8 114.14 397.4 117.45 399.65C130.1 408.28 144.27 413.46 158.85 417.61C191.82 426.97 225.6 430.05 259.72 429.53Z" fill="black"/>
<path d="M320.08 178.03C320.13 210.92 293.21 237.91 260.3 237.96C227.41 238.01 200.42 211.09 200.37 178.18C200.32 145.29 227.24 118.3 260.15 118.25C293.04 118.21 320.03 145.13 320.08 178.03ZM296.12 177.98C295.99 158.44 279.81 142.28 260.3 142.22C240.7 142.15 224.21 158.67 224.34 178.24C224.47 197.93 241.07 214.33 260.56 214C280.2 213.68 296.25 197.42 296.12 177.98Z" fill="black"/>
</svg>
