<svg width="512" height="512" viewBox="0 0 512 512" fill="none" xmlns="http://www.w3.org/2000/svg">
<path d="M453.42 456.24C322.67 456.24 191.93 456.23 61.18 456.31C58.28 456.31 57.58 455.66 57.62 452.76C57.8 439.49 57.7 426.22 57.7 412.95C57.95 412.69 58.33 412.46 58.42 412.16C61.33 401.63 68.07 395.14 78.78 392.92C80.27 392.61 80.93 391.65 81.65 390.6C84.65 386.21 88.61 383.01 93.65 381.36C95.66 380.7 96.08 379.6 96.07 377.68C96.02 349.21 96.01 320.73 96.08 292.26C96.08 290.13 95.46 289.18 93.4 288.39C84.88 285.1 79.44 278.9 77.51 269.95C76.22 263.99 77.07 257.88 76.94 251.84C76.86 247.87 76.98 244.01 78.3 240.08C90.85 202.83 103.26 165.54 115.53 128.21C116.58 125 118.04 124.23 121.18 124.26C137.67 124.41 154.15 124.24 170.64 124.41C173.87 124.44 175.2 123.56 176.08 120.36C185.08 87.39 216.05 62.51 250.19 60.6C289.7 58.38 324.35 83.01 335.23 121.19C336 123.89 337.25 124.41 339.79 124.39C356.79 124.28 373.79 124.41 390.8 124.26C393.47 124.24 394.57 125.06 395.39 127.54C407.97 165.59 420.65 203.6 433.31 241.62C433.8 243.08 434.26 244.52 434.24 246.12C434.18 252.3 434.34 258.49 434.18 264.67C433.87 276.15 428.22 284.08 417.67 288.43C415.88 289.17 415.05 289.88 415.05 291.96C415.12 320.56 415.11 349.16 415.06 377.77C415.06 379.74 415.59 380.75 417.56 381.4C422.59 383.08 426.55 386.29 429.51 390.7C430.32 391.91 431.25 392.64 432.81 393.03C446.08 396.32 453.39 405.76 453.43 419.55C453.45 431.76 453.42 444 453.42 456.24ZM108.74 376.45C109.33 376.34 109.72 376.34 110.05 376.19C119.52 371.96 128.55 372.59 137.01 378.72C138.28 379.64 139.58 379.68 141 379.69C149.44 379.78 156.15 383.35 161.09 390.1C162.31 391.76 163.52 392.71 165.58 393.19C177.08 395.87 184.88 405.47 185.23 417.29C185.4 423.08 185.29 428.88 185.29 434.68C185.3 443.44 185.3 443.24 194.07 443.51C197.6 443.62 198.26 442.53 198.25 439.21C198.13 395.15 198.21 351.09 198.1 307.02C198.09 303.94 198.63 302.95 201.98 302.97C237.66 303.11 273.34 303.11 309.01 302.98C312.21 302.97 313 303.71 312.99 306.94C312.87 349.2 312.91 391.46 312.91 433.72C312.91 443.82 312.91 443.73 323.11 443.48C325.4 443.42 325.86 442.65 325.84 440.57C325.74 432.97 325.69 425.37 325.84 417.77C326.1 405.51 333.88 395.89 345.8 393.1C347.58 392.68 348.71 391.98 349.74 390.49C353.88 384.43 359.69 380.65 366.95 379.98C370.9 379.61 374.19 378.48 377.62 376.57C385.6 372.11 393.88 372.73 401.99 376.55C402.17 376.13 402.33 375.92 402.33 375.71C402.35 347.62 402.33 319.54 402.42 291.45C402.43 289.57 401.55 289.03 400.12 288.57C396.77 287.48 393.75 285.74 391.33 283.19C389.89 281.67 389.05 282.06 387.68 283.25C377.11 292.45 363.82 292.56 353.41 283.45C351.64 281.9 350.75 281.99 349.06 283.51C339.11 292.46 325.08 292.43 315.11 283.41C313.34 281.81 312.49 282.03 310.84 283.49C300.79 292.41 286.96 292.41 276.83 283.48C275.14 281.99 274.26 281.87 272.52 283.44C262.61 292.42 248.45 292.43 238.57 283.47C236.88 281.94 236.01 281.9 234.27 283.44C224.1 292.41 210.27 292.45 200.28 283.5C198.35 281.77 197.44 282.11 195.74 283.66C186.31 292.24 171.68 292.32 162.34 283.8C160.44 282.07 159.43 281.87 157.41 283.67C147.61 292.41 133.45 292.34 123.72 283.53C121.84 281.82 120.89 281.94 119.25 283.68C117.21 285.85 114.59 287.52 111.75 288.25C108.95 288.97 108.67 290.47 108.68 292.92C108.75 319.59 108.73 346.26 108.73 372.93C108.74 374.07 108.74 375.2 108.74 376.45ZM210.83 379.71C210.83 399.67 210.88 419.63 210.77 439.59C210.75 442.45 211.24 443.53 214.47 443.52C241.89 443.38 269.31 443.39 296.73 443.5C299.58 443.51 300.38 442.85 300.37 439.91C300.26 399.74 300.25 359.56 300.38 319.39C300.39 316.16 299.33 315.66 296.46 315.67C269.17 315.77 241.88 315.78 214.59 315.66C211.58 315.65 210.73 316.38 210.75 319.46C210.9 339.53 210.83 359.62 210.83 379.71ZM217.21 201.7C217.21 189.09 217.14 177 217.27 164.91C217.3 162.45 216.53 161.41 214.21 160.51C204.42 156.71 198.12 147.54 198.27 137.17C198.43 126.02 202.11 115.89 209.03 107.23C218.22 95.71 229.75 95.95 238.63 107.57C244.19 114.86 247.58 123.19 248.68 132.28C250.37 146.26 244.98 155.41 231.93 160.91C229.97 161.74 230.04 162.95 230.04 164.52C230.06 178.3 230.12 192.09 229.98 205.87C229.96 208.3 230.84 209.08 232.98 209.8C248.15 214.9 263.25 214.85 278.39 209.72C280.38 209.04 281.16 208.24 281.14 205.99C281.01 192.21 281.01 178.42 281.14 164.64C281.16 162.28 280.33 161.47 278.22 160.6C269.07 156.83 263.49 150.02 262.3 140.07C261.3 131.74 261.99 123.34 261.9 114.98C261.8 104.93 261.87 105.02 271.88 105.1C274.3 105.12 274.88 105.81 274.84 108.15C274.7 117.55 274.78 126.96 274.79 136.36C274.79 141.12 276.54 144.92 281.08 147.85C281.08 136.36 281.03 125.44 281.11 114.52C281.13 111.48 279.72 107.32 281.73 105.69C283.62 104.16 287.63 105.41 290.68 105.11C293.59 104.82 294 106.1 293.97 108.63C293.84 119.96 293.9 131.3 293.94 142.64C293.95 144.11 293.55 145.66 294.43 147.37C298.82 144.68 300.21 140.61 300.27 135.97C300.37 128.89 300.3 121.8 300.3 114.72C300.3 104.93 300.3 104.99 310.1 105.12C312.12 105.15 313.03 105.44 312.99 107.79C312.84 117.71 313.11 127.63 312.83 137.54C312.52 148.71 306.77 156.43 296.56 160.64C294.23 161.6 293.87 162.78 293.88 164.9C293.95 176.11 293.9 187.31 293.94 198.52C293.94 199.46 293.49 200.56 294.45 201.36C317.58 187.04 331.54 155.8 323.36 125.19C315.22 94.76 287.24 73.27 255.58 73.26C224.06 73.25 196.23 94.58 187.91 124.81C179.49 155.36 193.41 186.97 217.21 201.7ZM141.8 239.1C144.5 239.1 147.25 238.79 149.9 239.17C153.85 239.75 155.12 238.06 155.22 234.42C155.28 232.26 155.93 230.12 156.29 227.96C161.23 198.42 166.15 168.88 171.14 139.35C171.46 137.46 171.04 136.89 169.09 136.95C164.33 137.08 159.56 137.12 154.81 136.93C152.66 136.84 152.02 137.68 151.6 139.6C144.47 171.96 137.31 204.31 130.03 236.64C129.49 239.05 130.28 239.18 132.17 239.13C135.36 239.04 138.58 239.1 141.8 239.1ZM339.66 136.99C341.26 146.43 342.82 155.54 344.34 164.65C348.29 188.49 352.23 212.33 356.13 236.18C356.47 238.23 357.07 239.25 359.51 239.17C365.94 238.96 372.38 239.04 378.81 239.13C380.95 239.16 381.64 238.92 381.06 236.41C377.99 223.28 375.17 210.09 372.25 196.92C368.06 177.98 363.88 159.05 359.61 140.13C359.33 138.91 359.8 136.89 357.26 136.94C351.48 137.08 345.71 136.99 339.66 136.99ZM389.43 417.87C405.38 417.87 421.33 417.77 437.28 417.95C440.77 417.99 440.79 416.53 440.02 414.05C438.25 408.33 433.09 404.92 426.21 405.33C423.39 405.5 421.94 404.98 420.93 402.02C418.26 394.25 412.6 391.17 404.67 393.11C402.3 393.69 401.25 392.95 399.86 391.38C393.69 384.37 385.43 384.4 379.26 391.46C377.85 393.08 376.73 393.65 374.42 393.08C366.9 391.23 361.01 394.21 358.46 401.36C357.3 404.62 355.88 405.58 352.46 405.32C345.94 404.83 340.8 408.53 339.12 414.12C338.32 416.77 338.62 417.97 341.96 417.93C357.78 417.78 373.61 417.87 389.43 417.87ZM121.6 417.87C137.42 417.87 153.25 417.75 169.07 417.96C172.86 418.01 172.74 416.44 171.89 413.85C170.04 408.19 164.92 404.95 157.94 405.32C155.32 405.46 153.9 405.02 152.91 402.17C150.15 394.16 144.61 391.22 136.38 393.15C134.43 393.61 133.41 393.24 132.14 391.81C125.5 384.31 117.59 384.24 111.06 391.64C109.71 393.17 108.65 393.63 106.51 393.12C98.53 391.21 92.89 394.23 90.19 401.96C89.19 404.82 87.86 405.51 84.96 405.33C78.06 404.88 73.33 407.94 71.29 413.62C69.96 417.32 70.31 417.87 74.13 417.87C89.95 417.88 105.78 417.87 121.6 417.87ZM104.34 239.1C107.3 239.1 110.27 238.93 113.21 239.15C115.76 239.35 116.68 238.42 117.23 235.93C123.79 205.96 130.49 176.02 137.13 146.07C137.77 143.2 139.64 139.17 138.44 137.67C136.82 135.65 132.69 137.38 129.69 136.95C126.81 136.54 125.77 137.86 124.93 140.42C115.28 169.65 105.5 198.83 95.78 228.03C94.61 231.54 93.64 235.11 92.57 238.66C96.33 239.61 100.16 238.85 103.95 239.1C104.08 239.11 104.21 239.1 104.34 239.1ZM406.4 239.1C409.23 239.1 412.08 238.89 414.89 239.15C418.24 239.47 419 238.74 417.84 235.29C407.81 205.65 397.96 175.95 388.05 146.27C384.86 136.72 384.85 136.79 374.87 136.93C372.73 136.96 371.82 137.24 372.55 139.68C373.43 142.62 373.94 145.68 374.6 148.69C381.07 177.89 387.56 207.09 393.98 236.3C394.44 238.37 395.19 239.35 397.53 239.15C400.47 238.91 403.45 239.1 406.4 239.1ZM121.41 443.43H163.86C172.68 443.43 172.52 443.43 172.74 434.67C172.82 431.48 172.01 430.63 168.78 430.65C139.07 430.78 109.36 430.73 79.65 430.73C70.38 430.73 70.5 430.73 70.45 440.16C70.43 442.98 71.37 443.51 73.96 443.49C89.77 443.37 105.59 443.43 121.41 443.43ZM389.24 443.43H431.69C440.64 443.43 440.52 443.43 440.68 434.45C440.73 431.53 440.07 430.63 436.97 430.64C407.13 430.77 377.29 430.72 347.45 430.72C338.43 430.72 338.61 430.72 338.38 439.59C338.29 443.01 339.54 443.52 342.55 443.49C358.11 443.35 373.68 443.43 389.24 443.43ZM178.53 173.96C178.14 175.27 177.83 175.98 177.71 176.73C174.36 196.76 171.07 216.79 167.66 236.81C167.3 238.9 168.01 239.16 169.8 239.14C176.49 239.06 183.19 238.99 189.87 239.17C192.25 239.23 192.61 238.09 192.81 236.23C193.92 225.48 195.08 214.74 196.26 204C196.41 202.68 196.51 201.53 195.46 200.44C188.22 192.85 182.75 184.11 178.53 173.96ZM332.78 173.5C328.39 184.12 322.85 192.83 315.65 200.45C314.75 201.4 314.67 202.4 314.81 203.63C316.03 214.62 317.22 225.62 318.36 236.62C318.56 238.51 319.26 239.2 321.27 239.15C327.83 239.01 334.4 238.96 340.96 239.16C343.72 239.24 343.68 238.27 343.29 236.04C341.23 224.27 339.37 212.46 337.41 200.67C335.94 191.95 334.43 183.23 332.78 173.5ZM236.31 136.63C236.26 130.28 232.35 119.91 228 114.62C224.79 110.72 222.49 110.61 219.39 114.57C214.61 120.68 211.93 127.71 211 135.38C210.09 142.88 215.71 149.42 223.21 149.77C230.43 150.1 236.36 144.15 236.31 136.63ZM255.7 252.02C252.23 252.02 248.75 252.08 245.28 251.99C243.6 251.95 242.63 252.25 242.73 254.27C242.93 258.38 242.67 262.53 243.11 266.6C243.79 272.87 249.38 277.53 255.6 277.5C261.85 277.47 267.34 272.8 268.01 266.5C268.44 262.42 268.2 258.28 268.37 254.17C268.44 252.46 267.76 251.94 266.12 251.99C262.65 252.08 259.18 252.02 255.7 252.02ZM370.63 252.02C367.02 252.02 363.42 252.04 359.81 252.01C358.55 252 357.56 252.03 357.61 253.78C357.74 257.9 357.41 262.05 357.84 266.14C358.54 272.82 364.41 277.75 370.81 277.5C377.71 277.23 382.94 271.82 383.13 264.66C383.22 261.31 383.06 257.96 383.19 254.61C383.27 252.68 382.81 251.85 380.68 251.97C377.34 252.15 373.98 252.02 370.63 252.02ZM140.73 252.02C140.47 252.02 140.21 252.01 139.96 252.02C136.03 252.28 130.62 250.3 128.57 252.82C126.6 255.24 127.93 260.44 127.99 264.41C128.11 271.81 133.43 277.33 140.45 277.5C147.32 277.67 153.08 272.13 153.43 264.85C153.6 261.38 153.39 257.89 153.52 254.42C153.59 252.6 153.07 251.91 151.17 251.98C147.69 252.11 144.21 252.02 140.73 252.02ZM331.44 252.02C328.03 252.39 322.11 250.15 320.09 252.83C317.98 255.62 319.37 261.21 319.58 265.56C319.91 272.14 325 277.06 331.52 277.48C337.78 277.89 343.53 273.22 344.62 266.79C345.34 262.57 344.77 258.31 344.99 254.07C345.09 252.22 344.14 251.97 342.63 251.99C339.17 252.06 335.7 252.02 331.44 252.02ZM217.37 252.02C214.03 252.02 210.69 252.13 207.36 251.98C205.34 251.89 204.31 252.22 204.47 254.61C204.69 258.06 204.44 261.54 204.57 265C204.83 271.98 210.4 277.44 217.17 277.51C223.88 277.58 229.62 272.15 229.98 265.18C230.16 261.59 229.89 257.99 230.09 254.4C230.21 252.16 229.2 251.92 227.38 251.98C224.05 252.1 220.71 252.02 217.37 252.02ZM178.88 252.02C175.41 252.02 171.93 252.06 168.46 252C166.94 251.97 166.02 252.25 166.12 254.09C166.34 258.32 165.81 262.58 166.48 266.81C167.08 270.6 169.05 273.47 172.28 275.49C176.99 278.44 182.73 278.11 187.01 274.54C194.08 268.65 191.01 260.51 191.65 253.2C188.55 250.62 184.91 252.69 181.59 252.05C180.71 251.87 179.79 252.02 178.88 252.02ZM294.11 252.02C290.64 252.02 287.18 252.1 283.72 251.99C281.87 251.93 280.91 252.23 281.03 254.43C281.23 258.01 280.96 261.62 281.14 265.21C281.51 272.17 287.25 277.6 293.97 277.52C300.75 277.44 306.29 271.97 306.55 264.99C306.68 261.53 306.49 258.05 306.63 254.59C306.71 252.64 306.22 251.86 304.12 251.98C300.79 252.15 297.45 252.02 294.11 252.02ZM408.74 252.02C405.26 252.02 401.79 252.08 398.31 251.99C396.77 251.95 395.95 252.23 396.02 254.06C396.17 258.05 396.02 262.04 396.19 266.03C396.34 269.72 398.18 272.63 401.08 274.83C405.58 278.24 411.67 278.3 416.19 275.04C420.94 271.61 424.38 259.93 421.28 253.33C419.72 250.02 414.78 252.67 411.44 252.04C410.56 251.88 409.64 252.02 408.74 252.02ZM102.34 252.02C98.86 252.02 95.39 252.01 91.91 252.02C90.77 252.02 89.46 251.78 89.54 253.63C89.74 258.25 89.03 262.91 90.02 267.49C91.33 273.53 96.98 277.85 102.94 277.48C109.47 277.07 114.61 272.09 114.95 265.6C115.15 261.88 114.95 258.13 115.09 254.4C115.16 252.6 114.68 251.89 112.76 251.97C109.3 252.12 105.82 252.02 102.34 252.02ZM302.79 211.62C295.75 216.18 288.9 219.85 281.4 222.18C280.29 222.52 279.82 223.19 279.91 224.47C280.21 228.57 280.41 232.67 280.55 236.77C280.61 238.57 281.31 239.17 283.12 239.13C288.38 239.02 293.64 239.09 298.91 239.09C305.68 239.09 305.74 239.08 305.08 232.54C304.39 225.72 303.59 218.89 302.79 211.62ZM208.36 211.64C207.34 220.56 206.38 229.06 205.38 237.55C205.19 239.18 206.18 239.1 207.25 239.1C214.18 239.09 221.11 239.04 228.04 239.14C229.9 239.17 230.51 238.49 230.57 236.74C230.71 232.64 230.91 228.53 231.21 224.44C231.31 223.14 230.77 222.51 229.68 222.17C222.18 219.84 215.34 216.15 208.36 211.64ZM255.58 239.1C256.1 239.1 256.61 239.13 257.12 239.09C260.66 238.82 265.6 240.69 267.37 238.33C269.03 236.11 267.31 231.45 267.31 227.87C267.31 225.88 266.59 225.59 264.78 225.75C260.43 226.15 256.08 226.66 251.68 226.25C244.01 225.54 244 225.61 243.43 233.29C243 239.09 243 239.09 248.61 239.09C250.94 239.1 253.26 239.1 255.58 239.1Z" fill="#030303"/>
<path d="M179.01 334.88C179.01 342.48 178.93 350.08 179.06 357.68C179.1 359.83 178.52 360.5 176.31 360.48C161.11 360.39 145.92 360.39 130.72 360.48C128.59 360.49 127.9 359.98 127.92 357.74C128.02 342.54 128.01 327.34 127.93 312.14C127.92 310.01 128.41 309.31 130.66 309.32C145.86 309.42 161.05 309.45 176.25 309.3C178.9 309.28 179.09 310.34 179.06 312.46C178.94 319.93 179.01 327.4 179.01 334.88ZM166.13 334.94C166.13 331.59 166.05 328.25 166.16 324.91C166.22 323.05 165.89 322.14 163.69 322.19C156.88 322.33 150.06 322.3 143.24 322.2C141.29 322.17 140.52 322.69 140.55 324.79C140.67 331.61 140.67 338.43 140.55 345.25C140.51 347.38 141.35 347.84 143.27 347.81C150.09 347.72 156.9 347.72 163.72 347.81C165.59 347.84 166.2 347.19 166.15 345.36C166.06 341.89 166.13 338.41 166.13 334.94ZM357.58 309.37C365.18 309.37 372.78 309.44 380.37 309.32C382.47 309.29 383.22 309.76 383.21 312.03C383.11 327.23 383.12 342.43 383.2 357.63C383.21 359.71 382.79 360.49 380.5 360.47C365.3 360.37 350.11 360.38 334.91 360.46C332.83 360.47 332.04 360.07 332.05 357.76C332.16 342.56 332.18 327.36 332.04 312.16C332.02 309.55 333 309.28 335.17 309.32C342.64 309.44 350.11 309.37 357.58 309.37ZM370.51 334.94C370.51 331.59 370.42 328.25 370.55 324.91C370.62 322.97 370.09 322.16 367.99 322.2C361.05 322.31 354.1 322.29 347.15 322.21C345.47 322.19 344.93 322.72 344.95 324.41C345.03 331.49 345.02 338.56 344.96 345.64C344.95 347.36 345.65 347.82 347.26 347.81C354.21 347.75 361.15 347.74 368.1 347.82C369.93 347.84 370.61 347.24 370.55 345.38C370.43 341.89 370.51 338.42 370.51 334.94ZM223.71 379.31C223.71 373.31 223.71 373.31 229.69 373.31C236.35 373.31 236.35 373.31 236.35 379.79C236.35 385.97 236.35 385.97 230.18 385.97C223.71 385.96 223.71 385.96 223.71 379.31Z" fill="#030303"/>
</svg>
