<svg width="512" height="512" viewBox="0 0 512 512" fill="none" xmlns="http://www.w3.org/2000/svg">
<path d="M229.44 72.8999C234.03 73.5999 238.62 74.2799 243.21 75.0199C306.49 85.1599 357.82 134.98 369.39 197.7C377.54 241.89 368.33 282.26 341.95 318.63C340.12 321.16 340.53 322.31 342.55 324.31C375.24 356.87 407.84 389.52 440.49 422.13C446.72 428.35 449.01 435.51 445.76 443.91C441.27 455.52 426.96 459.65 416.89 452.32C415.19 451.08 413.68 449.56 412.19 448.07C379.91 415.81 347.62 383.54 315.4 351.22C313.56 349.37 312.46 348.87 310.02 350.67C227.88 411.35 111.54 377.65 74.4398 282.51C69.5299 269.92 66.5198 256.86 64.9298 243.46C64.8398 242.7 65.3098 241.63 64.0898 241.27V213.58C65.6298 211.58 65.1099 209.11 65.4099 206.89C74.1099 141.19 124.1 88.1099 188.85 75.7699C194.39 74.7099 200.09 74.6199 205.51 72.9099C213.48 72.8999 221.46 72.8999 229.44 72.8999ZM102.26 226.83C102.06 290.44 153.94 342.52 217.89 342.92C281.49 343.32 333.75 291.4 334.1 227.46C334.45 163.62 282.31 111.25 218.33 111.19C154.6 111.14 102.46 163.08 102.26 226.83Z" fill="#010101"/>
</svg>
