<svg xmlns="http://www.w3.org/2000/svg" viewBox="0 0 512 512" fill="black" xml:space="preserve">
<path d="M287.74 55.39c28.39 3.54 54.93 13.12 79.4 27.36 48.1 27.98 78.42 70.48 95.5 122.82 3.44 10.54 5.15 21.63 7.66 32.47v46.91c-2.52 1.23-1.64 3.75-2.02 5.7-4.09 21.08-9.83 41.26-20.05 60.67-35.97 68.34-92.04 107.36-168.18 114.98-80.36 8.04-145.99-22.59-193.67-86.93-57.43-77.5-48.09-189.98 15.86-256.57 33.89-35.29 73.61-57.9 121.66-66.26m-56.15 165.29c-7.52.1-13.22 1.49-18.59 4.2-19.93 10.05-27.41 34.68-16.36 53.84 11.27 19.55 36.93 25.83 56.16 13.25 4.41-2.88 7.48-3.25 12.27-.92 25.61 12.46 50.72 26 77.02 37.02 5.45 2.28 8.04 5.15 8.17 11.8.29 15.61 11.74 29.58 26.43 34.25 15.51 4.94 32.21.26 42.1-12.65 10.28-13.42 15.5-24.23 4-43.02-12.43-20.32-36.97-26.41-56.4-12.72-3.95 2.78-6.71 2.86-10.8.81-26.19-13.08-52.5-25.94-78.8-38.82-3.46-1.69-6.3-3.05-6.28-8.05.02-4.84 2.44-6.48 6.02-8.23 26.56-12.96 53.13-25.89 79.52-39.18 4.47-2.25 7.1-1.08 10.74 1.45 15.23 10.61 35.5 9.49 48.16-3.56 13.34-13.75 20.55-27.53 7.41-47.82-9.56-14.76-26.24-22.26-43.06-17.99-16.91 4.3-28.83 18.64-29.19 36.21-.11 5.17-1.83 7.66-6.35 9.6-27.19 11.64-53.36 25.44-79.93 38.39-3.91 1.91-6.57 1.7-10.14-.89-6.93-5.02-15.21-6.39-22.1-6.97z" fill="black"/>
</svg>
