<svg width="512" height="512" viewBox="0 0 512 512" fill="none" xmlns="http://www.w3.org/2000/svg">
<path d="M64.0801 284.81C65.0501 284.65 65.0401 283.72 65.2601 283.1C67.2101 277.65 70.9701 273.99 76.0401 271.28C101.92 257.46 127.72 243.48 153.62 229.7C156.17 228.34 157.07 226.94 157.06 224.02C156.94 193.47 157.07 162.92 156.93 132.37C156.88 122.24 160.98 115.21 170.06 110.44C195.26 97.18 220.3 83.62 245.34 70.07C252.16 66.38 258.72 66.2 265.58 69.9C291.29 83.77 317.05 97.56 342.81 111.35C350.62 115.53 354.29 122.07 354.27 130.82C354.26 136.81 354.32 142.79 354.25 148.78C354.2 153.13 351.99 155.55 348.38 155.43C344.96 155.32 343.07 153 343.04 148.74C343 143.75 342.87 138.76 343.09 133.78C343.23 130.63 342.6 130.2 339.74 131.67C321.08 141.32 302.35 150.83 283.63 160.37C276.99 163.76 270.34 167.14 263.66 170.46C262.08 171.24 261.2 172.1 261.21 174.09C261.29 206.14 261.27 238.19 261.29 270.23C261.29 270.47 261.41 270.71 261.53 271.16C263.3 271.06 264.61 269.87 266.06 269.1C274.29 264.71 282.46 260.21 290.72 255.89C292.57 254.92 293.11 254.2 292.34 252.01C279.84 216.52 300.06 179.88 336.77 172.33C358.11 167.94 376.64 174.28 392.04 189.65C394.94 192.55 395.15 195.85 392.83 198.24C390.33 200.82 387.16 200.54 384.01 197.46C365.76 179.62 339.74 177.22 319.97 191.54C302.09 204.5 295.08 227.88 302.9 248.47C310.91 269.56 331.63 281.94 354.95 279.56C375.55 277.46 393.55 259.99 396.88 238.73C397.87 232.39 397.5 226.06 396.2 219.77C395.37 215.77 397 212.91 400.28 212.26C403.58 211.6 406.16 213.49 407.1 217.51C409.79 229.1 409.13 240.54 405.02 251.69C404.2 253.93 404.53 254.87 406.59 255.95C416.17 260.97 425.61 266.26 435.21 271.25C443.49 275.55 447.27 282.2 447.24 291.48C447.14 322.28 447.16 353.08 447.23 383.88C447.25 393.17 443.34 399.71 434.99 403.93C409.58 416.77 384.23 429.71 358.93 442.75C351.92 446.36 345.32 446.35 338.3 442.73C311.78 429.07 285.14 415.63 258.6 402C256.47 400.9 254.92 400.84 252.79 401.96C243.77 406.71 234.65 411.26 225.55 415.85C221.29 418 218.28 417.37 216.61 414.07C214.97 410.83 216.3 408.05 220.58 405.85C229.54 401.25 238.49 396.63 247.47 392.1C249.01 391.32 250.07 390.64 250.06 388.58C249.98 356.28 249.99 323.99 249.97 291.69C249.97 291.46 249.82 291.22 249.73 290.98C248.6 290.48 247.85 291.39 247.03 291.8C221.77 304.65 196.53 317.55 171.27 330.4C169.42 331.34 168.14 332.13 168.15 334.71C168.27 366.63 168.23 398.56 168.23 430.48V432.43C174.79 429.1 180.95 425.98 187.12 422.85C189.78 421.5 192.39 420.04 195.1 418.8C198.25 417.36 201.28 418.42 202.7 421.28C204.06 424.02 203.31 427.05 200.31 428.61C190.05 433.94 179.77 439.23 169.34 444.2C164.36 446.57 159.09 446.01 154.18 443.51C127.69 430.05 101.24 416.51 74.7401 403.08C69.2701 400.31 66.6001 395.41 64.0801 390.28V284.81ZM343.04 432.47C343.04 399.28 343.02 366.76 343.1 334.23C343.11 332.18 342.13 331.44 340.6 330.66C315.24 317.76 289.87 304.86 264.56 291.86C261.69 290.39 261.19 290.93 261.2 294.01C261.29 325.17 261.29 356.34 261.2 387.5C261.19 389.97 261.92 391.25 264.13 392.36C280.57 400.6 296.94 408.98 313.33 417.32C323.05 422.26 332.76 427.23 343.04 432.47ZM156.98 432.41C156.98 399.15 156.96 366.51 157.03 333.87C157.04 331.67 155.66 331.2 154.24 330.48C129.01 317.62 103.78 304.75 78.5301 291.92C77.6001 291.45 76.7401 290.52 75.4901 290.91C75.4201 291.17 75.3101 291.4 75.3001 291.63C75.2901 322.78 75.2901 353.93 75.2901 385.08C75.2901 389.11 77.1901 391.82 80.8001 393.61C89.1401 397.76 97.4101 402.05 105.71 406.29C122.63 414.9 139.54 423.52 156.98 432.41ZM435.95 290.69C435.14 290.82 434.87 290.8 434.67 290.91C408.66 304.16 382.68 317.46 356.63 330.64C354.55 331.69 354.24 333.03 354.24 335.05C354.28 366.45 354.27 397.85 354.27 429.25V432.26C355.1 431.93 355.44 431.83 355.76 431.67C380.66 418.98 405.54 406.25 430.47 393.61C434.57 391.53 436 388.34 435.99 383.94C435.93 355.16 435.96 326.38 435.96 297.59C435.95 295.36 435.95 293.14 435.95 290.69ZM249.64 271.47C249.85 270.7 249.96 270.46 249.96 270.22C249.98 238.17 249.96 206.12 250.04 174.07C250.04 172.07 249.16 171.23 247.59 170.44C222.1 157.48 196.62 144.5 171.18 131.45C168.64 130.14 168.16 130.64 168.17 133.38C168.25 163.93 168.24 194.49 168.16 225.04C168.15 227.08 168.8 228.08 170.58 229.03C186.61 237.56 202.57 246.21 218.56 254.8C228.83 260.32 239.11 265.82 249.64 271.47ZM243.22 281.08C242.6 280.62 242.37 280.38 242.08 280.23C216.25 266.32 190.4 252.43 164.6 238.46C162.82 237.49 161.65 238.05 160.18 238.84C149.03 244.88 137.85 250.86 126.68 256.87C111.93 264.8 97.1801 272.72 82.4201 280.66C83.0701 281.99 84.2601 282.16 85.2201 282.65C110.02 295.31 134.83 307.94 159.6 320.68C161.79 321.8 163.48 321.88 165.7 320.74C183.82 311.39 202 302.18 220.16 292.92C227.77 289.02 235.36 285.11 243.22 281.08ZM175.1 120.62C175.86 121.12 176.33 121.5 176.86 121.77C202.42 134.81 228.01 147.81 253.52 160.94C255.44 161.93 256.7 161.45 258.3 160.64C283.3 147.87 308.33 135.14 333.33 122.36C334.22 121.91 335.48 121.78 335.81 120.37C310.39 106.73 284.98 93.11 259.6 79.44C256.32 77.67 253.45 78.42 250.44 80.06C240.4 85.53 230.32 90.91 220.25 96.32C205.29 104.38 190.32 112.43 175.1 120.62ZM267.89 280.91C269.2 281.64 269.93 282.08 270.69 282.47C295.71 295.22 320.75 307.94 345.73 320.77C347.83 321.85 349.4 321.86 351.5 320.78C376.26 308.06 401.07 295.44 425.86 282.77C426.91 282.23 428.28 282.06 428.82 280.63C419.39 275.55 409.94 270.56 400.61 265.36C398.65 264.27 398.08 265.21 397.11 266.47C371.49 299.59 325.43 299.57 300.06 266.41C299 265.03 298.34 264.41 296.55 265.4C287.19 270.57 277.76 275.59 267.89 280.91Z" fill="#050505"/>
<path d="M341.28 255.75C339.54 255.9 338.16 255.11 336.94 253.97C331.18 248.62 325.39 243.32 319.69 237.92C317 235.37 316.78 231.96 318.94 229.64C321.13 227.28 324.5 227.23 327.27 229.71C331.17 233.2 335.06 236.71 338.75 240.42C340.53 242.21 341.47 241.94 343.08 240.21C351.41 231.27 359.89 222.47 368.3 213.6C370.13 211.67 372.12 210.4 374.91 211.35C379.07 212.75 380.05 217.45 376.74 220.99C369.33 228.91 361.82 236.74 354.34 244.6C351.5 247.58 348.65 250.55 345.81 253.53C344.58 254.82 343.21 255.84 341.28 255.75Z" fill="#050505"/>
</svg>
