<svg width="512" height="512" viewBox="0 0 512 512" fill="none" xmlns="http://www.w3.org/2000/svg">
<path d="M80.6401 259.39C80.6701 160.49 161.28 79.8901 260.2 79.8701C359.27 79.8601 439.93 160.62 439.81 259.7C439.69 358.6 358.97 439.13 260.07 439.04C161.16 438.94 80.6101 358.3 80.6401 259.39ZM260.2 404.28C339.92 404.33 404.79 339.51 405.04 259.56C405.29 179.98 340.55 115.1 260.42 114.63C180.92 114.16 115.2 179.82 115.39 259.53C115.59 339.42 180.43 404.23 260.2 404.28Z" fill="#010101"/>
<path d="M262.23 184.54C277.06 185.2 291.95 192.15 300.68 208.66C309.35 225.05 308.3 241.55 298.14 257.16C296.66 259.44 297.54 260.57 298.6 262.31C308.61 278.73 309.44 295.59 299.4 312.09C289.56 328.26 274.58 336.05 255.65 334.44C236.09 332.78 222.71 322.09 215.54 303.89C211.72 294.2 216.12 284.33 225.34 280.83C234.61 277.31 244.09 281.79 248.01 291.54C250.61 298 255.95 301.02 262.11 299.53C268.59 297.96 272.08 293 271.46 286.25C271.14 282.75 269.34 280.13 266.41 278.39C263.96 276.93 261.31 275.82 258.77 274.5C252.2 271.06 249.33 265.39 249.79 258.22C250.23 251.34 253.75 246.31 260.32 243.68C262.63 242.75 264.91 241.76 266.91 240.24C270.96 237.16 272.55 232.45 271.16 227.61C269.87 223.09 265.76 219.74 260.77 219.15C255.78 218.56 251.14 220.91 248.9 225.22C248.39 226.21 248.01 227.27 247.58 228.3C243.71 237.53 234.91 241.36 225.52 237.91C216.24 234.49 211.99 225.64 215.13 216.22C221.65 196.62 238.33 184.54 262.23 184.54Z" fill="#010101"/>
</svg>
