<svg xmlns="http://www.w3.org/2000/svg" viewBox="0 0 512 512" fill="black" xml:space="preserve">
<path d="M256.04 465.48c-116.61.85-213.89-95.49-212.61-213.91.64-58.45 22.06-108.71 63.93-149.61 43.1-42.1 95.23-62.27 155.56-60.73 110.29 2.81 206.65 94.37 205.63 214.5-.95 114.64-95.28 210.26-212.51 209.75zM148.62 269.72c-.6.2-1.05.44-1.52.5-6.16.78-11.02 3.86-14.77 8.64-5.43 6.93-6.44 14.71-3.37 22.84 2.93 7.74 9.01 11.73 17.08 12.56 3.8.39 7.67.16 11.51.16 18.7.01 37.4 0 56.09 0 3.39 0 3.42.02 2.09 3.23-2.17 5.21-4.39 10.41-6.58 15.61-4.82 11.41-8.5 23.12-8.71 35.62-.2 11.6-.09 23.21.66 34.8.76 11.71 7.32 18.61 18.66 19.59 9.85.85 16.8-4.56 18.49-14.3.55-3.21.5-6.43.39-9.66-.2-5.6.46-11.06 2.18-16.4 2.5-7.73 7.14-14.17 12.05-20.5 14.36-18.51 28.49-37.19 38.75-58.42 4.58-9.47 8.93-19.1 8.96-29.88.09-32.3.03-64.61 0-96.91-.01-9.2-6.19-15.3-15.43-15.38-16.57-.15-33.14-.38-49.71-.45-22.34-.1-44.67-.23-67.01-.08-15.33.1-25.52 15.03-19.49 28.59 1.55 3.48 1.08 5.31-1.5 7.9-8.48 8.55-9.45 15.05-4.35 25.04.82 1.61 2.46 3.22 2.4 4.78-.07 1.86-2.59 2.53-4.04 3.7-11.67 9.4-10.82 30.62 5.24 36.95.63.27 1.41.35 1.93 1.47zm170.75-43.19v49.98c0 9.97 5.59 15.59 15.54 15.61 12.13.02 24.26.01 36.39 0 11.04 0 16.43-5.33 16.43-16.28.01-33.22.01-66.43 0-99.65 0-9.12-5.81-14.92-14.98-14.93-12.84-.01-25.67-.01-38.51 0-9.16.01-14.86 5.76-14.87 15-.01 16.75 0 33.51 0 50.27z" fill="black"/>
</svg>
