<svg xmlns="http://www.w3.org/2000/svg" viewBox="0 0 512 512" fill="black" xml:space="preserve">
<path d="M468.66 260.05c-.31 117.96-97.41 215.67-219.43 212.25-112.59-3.15-207.27-96.12-206.31-214.7.93-115.62 97.05-214 219.84-210.27 111.38 3.39 205.41 94.42 205.9 212.72zm-102.27 8.47c1.03-.23 1.9-.43 2.77-.63 13.15-3.03 20.95-15.91 17.52-28.92-2.45-9.3-9.96-14.95-20.22-14.98-21.83-.06-43.65-.04-65.48.02-2.48.01-3.31-.35-2.08-2.97 2.01-4.29 3.61-8.76 5.51-13.11 4.32-9.93 8.14-20.02 9.31-30.87 1.58-14.6.98-29.25-.26-43.81-1.15-13.47-11.26-20.36-24.58-17.71-5.77 1.14-9.53 4.61-11.46 10.07-1.55 4.37-1.39 8.95-1.24 13.48.37 11.33-2.98 21.49-9.62 30.58-3.75 5.13-7.74 10.09-11.56 15.16-12.04 15.97-23.56 32.26-32.34 50.33-5.77 11.89-8.9 24.15-8.67 37.59.5 28.66.15 57.33.15 85.99 0 1.01-.02 2.02.03 3.03.49 8.84 6.35 14.57 15.2 14.8 4.54.12 9.09.11 13.64.15 18.99.14 37.99.4 56.98.39 16.46-.01 32.95.75 49.39-.41 13.26-.93 22.17-15.91 16.68-27.98-1.68-3.7-1.11-5.68 1.61-8.45 8.45-8.58 9.17-14.99 3.62-25.65-.23-.45-.38-.97-.7-1.34-1.99-2.25-1.12-3.51 1.15-5.07 13.92-9.57 12.55-31.73-3.34-38.06-.69-.27-1.62-.32-2.01-1.63zm-170.96 43.4c0-16.95.01-33.91 0-50.86-.01-9.08-5.68-14.72-14.74-14.72-12.83.01-25.66.02-38.49 0-9.37-.02-15.19 5.55-15.21 15.01-.06 33.5-.06 67.01 0 100.51.02 9.68 5.91 15.3 15.64 15.3h37.58c9.5 0 15.21-5.72 15.21-15.29.02-16.65.01-33.3.01-49.95z" fill="black"/>
</svg>
