<svg width="512" height="512" viewBox="0 0 512 512" fill="none" xmlns="http://www.w3.org/2000/svg">
<path d="M70.8601 246.46C72.3601 242.53 72.2201 238.32 72.8601 234.25C81.3001 180.17 108.24 137.5 153.22 106.77C187.67 83.2299 226.42 73.2099 268.09 75.5899C300.14 77.4199 329.74 87.3099 356.71 104.79C359.07 106.32 360.27 106.58 361.92 103.87C364.8 99.1399 368.12 94.6699 371.34 90.1499C372.6 88.3799 373.96 86.4499 376.55 86.8999C379.14 87.3499 379.76 89.6899 380.33 91.7399C384.79 107.63 389.23 123.52 393.55 139.45C395.42 146.34 392.21 150.71 385.03 151.37C369.04 152.83 353.04 154.25 337.04 155.68C336.2 155.76 335.35 155.81 334.51 155.78C330 155.63 328.34 152.89 330.75 149.03C333.88 144.02 337.17 139.08 340.78 134.41C342.85 131.74 342.17 130.82 339.59 129.21C313.74 113.04 285.55 104.93 255.15 105.28C221.64 105.66 191.04 115.61 164.08 135.7C133.29 158.63 113.42 188.87 104.7 226.33C100.38 244.89 99.7801 263.61 102.53 282.45C108.47 323.18 127.33 356.64 159.34 382.51C179.5 398.8 202.52 409.07 227.97 414.05C239.38 416.28 244.64 427.6 238.86 436.82C235.63 441.97 229.39 444.72 223.18 443.52C178.33 434.86 141.32 412.91 112.36 377.62C88.4101 348.43 75.4101 314.69 71.6301 277.26C71.5601 276.61 71.8701 275.75 70.8701 275.48V270.4C72.0601 264.415 72.0601 258.255 70.8701 252.27C70.8601 250.33 70.8601 248.4 70.8601 246.46Z" fill="#010101"/>
<path d="M70.8601 252.27C72.0501 258.255 72.0501 264.415 70.8601 270.4V252.27Z" fill="#020202"/>
<path d="M259.4 203.98C259.4 220.65 259.46 237.33 259.34 254C259.32 256.83 260.01 258.38 262.73 259.77C293.5 275.52 324.18 291.45 354.87 307.35C361.42 310.74 363.95 315.59 362.47 321.67C360.8 328.5 353.68 332.42 347.01 330.15C345.76 329.73 344.56 329.14 343.39 328.54C308.29 310.41 273.21 292.25 238.08 274.17C236.15 273.18 235.26 272.18 235.26 269.85C235.34 231.07 235.3 192.28 235.33 153.5C235.34 146.07 239.61 141.02 246.12 140.47C253.62 139.83 259.33 145.06 259.37 152.88C259.45 169.91 259.4 186.94 259.4 203.98Z" fill="#010101"/>
<path d="M312.42 426.39C312.46 433.13 308.42 438.83 301.86 440.72C297.7 441.92 293.43 442.88 289.15 443.49C281.57 444.58 274.6 439.39 272.88 431.73C271.25 424.44 275.54 416.86 282.83 414.68C286.86 413.48 291 412.49 295.15 411.89C304.57 410.55 312.37 417.23 312.42 426.39ZM442.04 259.81C441.98 262.69 442.33 265.58 441.54 268.45C439.65 275.27 433.02 280.2 426.46 279.55C418.51 278.76 412.8 273.18 412.4 265.62C412.2 261.89 412.16 258.14 412.26 254.4C412.49 245.9 418.62 239.57 426.7 239.32C434.78 239.07 441.47 245.46 442.01 254.02C442.15 255.94 442.04 257.88 442.04 259.81ZM434.23 312.98C433.14 318.43 431.51 325.15 427.52 330.85C423.75 336.25 416.25 337.91 410.29 335.33C403.79 332.52 400.09 326.08 401.39 319.24C402.36 314.14 404.1 309.21 406.44 304.6C409.55 298.47 416.78 295.58 423.42 297.39C429.72 299.1 434.18 304.98 434.23 312.98ZM371.67 371.43V371.07C371.87 361.7 384.25 348.65 392.97 348.61C404.4 348.56 411.65 360.9 405.84 370.76C403.27 375.12 400.07 379.15 396.34 382.58C391.77 386.79 386.31 387.61 380.53 385.16C374.92 382.77 371.63 377.57 371.67 371.43ZM417.17 222.07C412.11 221.82 407.37 219 404.89 213.06C403.27 209.19 401.83 205.22 400.67 201.19C398.62 194.05 402.4 186.62 409.26 183.76C416.11 180.91 424.1 183.45 427.69 189.97C430.3 194.71 432.2 199.85 433.23 205.15C434.95 213.95 427.49 222.25 417.17 222.07ZM343.94 423.39C335.85 423.58 330.06 419.69 327.88 413.8C325.69 407.88 327.39 400.98 332.5 397.2C336.36 394.35 340.5 391.78 344.78 389.6C350.32 386.79 357.39 388.49 361.65 393.13C365.95 397.8 367.19 404.96 363.7 410.21C358.67 417.79 350.78 421.3 343.94 423.39Z" fill="#020202"/>
</svg>
