<svg width="512" height="512" viewBox="0 0 512 512" fill="none" xmlns="http://www.w3.org/2000/svg">
<path d="M84.8701 262.29C84.9201 163.39 165.56 82.8101 264.48 82.8301C363.55 82.8401 444.19 163.63 444.04 262.71C443.89 361.6 363.15 442.12 264.25 441.99C165.33 441.87 84.8301 361.21 84.8701 262.29ZM264.5 117.59C184.81 117.5 119.88 182.35 119.64 262.28C119.39 341.85 184.1 406.71 264.24 407.24C343.69 407.76 409.43 342.1 409.29 262.36C409.14 182.48 344.33 117.68 264.5 117.59Z" fill="#010101"/>
<path d="M270.89 302.92C279.46 302.92 287.29 302.8 295.11 302.95C303.94 303.12 311.12 309.41 312.28 317.72C313.47 326.18 308.64 334.06 300.59 336.78C298.2 337.59 295.73 337.8 293.22 337.8C274.64 337.8 256.06 337.78 237.48 337.81C229.76 337.82 223.55 335.08 220.04 327.89C216.6 320.85 218.17 314.42 222.82 308.39C239.78 286.39 256.68 264.33 273.61 242.3C275.13 240.32 276.68 238.38 277.17 235.83C279.01 226.19 271.61 219.67 262.28 222.72C255.36 224.98 251.66 230.37 251.07 239.08C250.54 246.84 244.86 253.43 237.46 254.88C229.5 256.44 221.57 252.53 218.13 245.39C216.5 242.01 216.4 238.44 216.53 234.8C217.77 200.85 254.82 177.41 285.55 191.14C312.36 203.12 320.66 238.16 302.34 262C292.04 275.42 281.72 288.83 270.89 302.92Z" fill="#020202"/>
</svg>
