<svg width="512" height="512" viewBox="0 0 512 512" fill="none" xmlns="http://www.w3.org/2000/svg">
<path d="M294.69 321.66C285.56 321.66 285.73 321.67 285.18 330.81C283.63 356.6 282.01 382.38 280.23 408.15C279.43 419.7 267.16 425.35 257.65 418.7C256.29 417.75 255.61 417.48 254.06 418.58C244.34 425.51 232.07 419.66 231.23 407.6C229.84 387.82 228.72 368.03 227.49 348.24C226.98 340.09 226.43 331.93 226.05 323.77C225.97 321.93 225.27 321.6 223.67 321.63C219.34 321.71 215.02 321.7 210.69 321.65C206.38 321.6 205.04 320.08 205.84 315.79C207.03 309.43 208.37 303.09 209.79 296.77C210.21 294.9 210.31 293.95 208 293.14C197.12 289.29 191.44 278.78 193.84 267.22C198.35 245.5 202.9 223.78 207.54 202.09C210.29 189.25 218.33 182.88 231.51 182.85C247.62 182.82 263.72 182.83 279.83 182.85C293.48 182.87 301.26 189.24 304.07 202.56C308.53 223.68 313.04 244.79 317.5 265.91C320.24 278.88 315.16 288.68 303.15 293.29C301.37 293.97 301.4 294.74 301.71 296.18C303.1 302.63 304.43 309.09 305.77 315.55C306.66 319.83 305.24 321.59 300.81 321.66C298.78 321.69 296.74 321.66 294.69 321.66ZM255.7 313.76C268.32 313.76 280.94 313.66 293.56 313.83C296.58 313.87 297.45 313.35 296.73 310.18C294.3 299.54 292.12 288.85 289.86 278.17C285.47 257.41 281.07 236.64 276.72 215.87C276.16 213.19 275.84 210.42 279.38 209.44C281.93 208.73 283.67 210.41 284.46 214.14L288.09 231.39C291.73 248.76 295.41 266.12 298.96 283.51C299.47 285.98 300.42 286.21 302.49 285.23C308.27 282.48 311.52 275.98 310.12 269.27C305.56 247.44 300.97 225.61 296.3 203.8C294.27 194.3 289.66 190.72 279.9 190.71C263.67 190.7 247.45 190.68 231.22 190.72C221.93 190.74 217.12 194.81 215.24 203.95C213.24 213.7 211.12 223.42 209.1 233.17C206.49 245.73 203.76 258.27 201.42 270.88C200.31 276.83 203.74 282.54 208.96 285.13C211.12 286.2 212.04 286.23 212.64 283.34C217.42 260.08 222.42 236.87 227.32 213.64C227.92 210.81 229.13 208.74 232.36 209.56C235.32 210.31 235.55 212.57 234.98 215.27C228.26 247.06 221.64 278.88 214.85 310.66C214.25 313.48 214.99 313.83 217.49 313.81C230.22 313.71 242.96 313.76 255.7 313.76ZM251.92 365.24C251.92 351.66 251.88 338.07 251.96 324.49C251.97 322.36 251.54 321.49 249.21 321.61C245.25 321.81 241.26 321.88 237.32 321.6C234.34 321.39 233.74 322.45 233.92 325.21C235.58 350.39 237.13 375.58 238.71 400.77C238.85 403.05 238.87 405.34 239.15 407.6C239.6 411.23 242.38 413.77 245.57 413.71C248.71 413.64 251.24 411.29 251.79 407.8C251.96 406.74 251.91 405.64 251.91 404.56C251.92 391.44 251.92 378.34 251.92 365.24ZM259.82 365.34C259.82 378.56 259.82 391.78 259.83 405C259.83 406.67 259.63 408.41 260.42 409.96C261.75 412.56 263.94 413.96 266.86 413.55C270.06 413.09 272.1 411.13 272.35 407.82C273.02 399.08 273.61 390.33 274.17 381.57C275.39 362.51 276.54 343.44 277.83 324.38C277.99 322.01 277.15 321.55 275.02 321.62C270.94 321.76 266.84 321.8 262.76 321.61C260.38 321.5 259.74 322.22 259.76 324.6C259.88 338.18 259.82 351.76 259.82 365.34ZM255.79 173.87C235.82 173.88 219.35 157.36 219.44 137.39C219.52 117.61 235.87 101.21 255.66 101.04C275.33 100.88 292.22 117.66 292.29 137.44C292.35 157.24 275.7 173.86 255.79 173.87ZM255.44 165.95C270.98 166.3 284.12 153.48 284.39 137.7C284.65 122.42 272.08 109.28 256.2 109.04C240.1 108.8 227.72 121.46 227.36 136.95C226.99 152.63 239.49 165.59 255.44 165.95Z" fill="black"/>
</svg>
